<svg xmlns="http://www.w3.org/2000/svg" xmlns:xlink="http://www.w3.org/1999/xlink" x="0" y="0" width="662" height="216" style="
        width:662px;
        height:216px;
        background: #FFF;
        fill: none;
">
        <svg xmlns="http://www.w3.org/2000/svg"/>
        
        <svg xmlns="http://www.w3.org/2000/svg" class="role-diagram-draw-area"><g class="shapes-region" style="stroke: black; fill: none;"><g class="composite-shape"><path class="real" d=" M118.24,62.16 C118.24,57.47 122.05,53.66 126.74,53.66 C131.44,53.66 135.24,57.47 135.24,62.16 C135.24,66.85 131.44,70.66 126.74,70.66 C122.05,70.66 118.24,66.85 118.24,62.16 Z" style="stroke-width: 1; stroke: none; stroke-opacity: 1; fill: rgb(255, 0, 0); fill-opacity: 1;"/></g><g class="composite-shape"><path class="real" d=" M168.24,62.16 C168.24,57.47 172.05,53.66 176.74,53.66 C181.44,53.66 185.24,57.47 185.24,62.16 C185.24,66.85 181.44,70.66 176.74,70.66 C172.05,70.66 168.24,66.85 168.24,62.16 Z" style="stroke-width: 1; stroke: none; stroke-opacity: 1; fill: rgb(74, 144, 226); fill-opacity: 1;"/></g><g class="arrow-line"><path class="connection real" stroke-dasharray="" d="  M135.24,62.16 L168.24,62.16" style="stroke: rgb(0, 0, 0); stroke-width: 4; fill: none; fill-opacity: 1;"/></g><g class="arrow-line"><path class="connection real" stroke-dasharray="" d="  M185.24,62.16 L232.03,62.16" style="stroke: rgb(0, 0, 0); stroke-width: 2; fill: none; fill-opacity: 1;"/></g><g class="composite-shape"><path class="real" d=" M232.03,62.16 C232.03,57.47 235.84,53.66 240.53,53.66 C245.22,53.66 249.03,57.47 249.03,62.16 C249.03,66.85 245.22,70.66 240.53,70.66 C235.84,70.66 232.03,66.85 232.03,62.16 Z" style="stroke-width: 1; stroke: none; stroke-opacity: 1; fill: rgb(255, 0, 0); fill-opacity: 1;"/></g><g class="composite-shape"><path class="real" d=" M282.03,62.16 C282.03,57.47 285.84,53.66 290.53,53.66 C295.22,53.66 299.03,57.47 299.03,62.16 C299.03,66.85 295.22,70.66 290.53,70.66 C285.84,70.66 282.03,66.85 282.03,62.16 Z" style="stroke-width: 1; stroke: none; stroke-opacity: 1; fill: rgb(74, 144, 226); fill-opacity: 1;"/></g><g class="arrow-line"><path class="connection real" stroke-dasharray="" d="  M249.03,62.16 L282.03,62.16" style="stroke: rgb(0, 0, 0); stroke-width: 4; fill: none; fill-opacity: 1;"/></g><g class="arrow-line"><path class="connection real" stroke-dasharray="" d="  M299.03,62.16 L345.82,62.16" style="stroke: rgb(0, 0, 0); stroke-width: 2; fill: none; fill-opacity: 1;"/></g><g class="composite-shape"><path class="real" d=" M337.32,62.16 C337.32,57.47 341.12,53.66 345.82,53.66 C350.51,53.66 354.32,57.47 354.32,62.16 C354.32,66.85 350.51,70.66 345.82,70.66 C341.12,70.66 337.32,66.85 337.32,62.16 Z" style="stroke-width: 1; stroke: none; stroke-opacity: 1; fill: rgb(255, 0, 0); fill-opacity: 1;"/></g><g class="composite-shape"><path class="real" d=" M387.32,62.16 C387.32,57.47 391.12,53.66 395.82,53.66 C400.51,53.66 404.32,57.47 404.32,62.16 C404.32,66.85 400.51,70.66 395.82,70.66 C391.12,70.66 387.32,66.85 387.32,62.16 Z" style="stroke-width: 1; stroke: none; stroke-opacity: 1; fill: rgb(74, 144, 226); fill-opacity: 1;"/></g><g class="arrow-line"><path class="connection real" stroke-dasharray="" d="  M354.32,62.16 L387.32,62.16" style="stroke: rgb(0, 0, 0); stroke-width: 4; fill: none; fill-opacity: 1;"/></g><g class="arrow-line"><path class="connection real" stroke-dasharray="" d="  M404.03,62.16 L450.82,62.16" style="stroke: rgb(0, 0, 0); stroke-width: 2; fill: none; fill-opacity: 1;"/></g><g class="composite-shape"><path class="real" d=" M442.32,62.16 C442.32,57.47 446.12,53.66 450.82,53.66 C455.51,53.66 459.32,57.47 459.32,62.16 C459.32,66.85 455.51,70.66 450.82,70.66 C446.12,70.66 442.32,66.85 442.32,62.16 Z" style="stroke-width: 1; stroke: none; stroke-opacity: 1; fill: rgb(255, 0, 0); fill-opacity: 1;"/></g><g class="composite-shape"><path class="real" d=" M492.32,62.16 C492.32,57.47 496.12,53.66 500.82,53.66 C505.51,53.66 509.32,57.47 509.32,62.16 C509.32,66.85 505.51,70.66 500.82,70.66 C496.12,70.66 492.32,66.85 492.32,62.16 Z" style="stroke-width: 1; stroke: none; stroke-opacity: 1; fill: rgb(74, 144, 226); fill-opacity: 1;"/></g><g class="arrow-line"><path class="connection real" stroke-dasharray="" d="  M459.32,62.16 L492.32,62.16" style="stroke: rgb(0, 0, 0); stroke-width: 4; fill: none; fill-opacity: 1;"/></g><g class="arrow-line"><path class="connection real" stroke-dasharray="" d="  M508.03,62.16 L554.82,62.16" style="stroke: rgb(0, 0, 0); stroke-width: 2; fill: none; fill-opacity: 1;"/></g><g class="composite-shape"><path class="real" d=" M546.32,62.16 C546.32,57.47 550.12,53.66 554.82,53.66 C559.51,53.66 563.32,57.47 563.32,62.16 C563.32,66.85 559.51,70.66 554.82,70.66 C550.12,70.66 546.32,66.85 546.32,62.16 Z" style="stroke-width: 1; stroke: none; stroke-opacity: 1; fill: rgb(255, 0, 0); fill-opacity: 1;"/></g><g class="composite-shape"><path class="real" d=" M596.32,62.16 C596.32,57.47 600.12,53.66 604.82,53.66 C609.51,53.66 613.32,57.47 613.32,62.16 C613.32,66.85 609.51,70.66 604.82,70.66 C600.12,70.66 596.32,66.85 596.32,62.16 Z" style="stroke-width: 1; stroke: none; stroke-opacity: 1; fill: rgb(74, 144, 226); fill-opacity: 1;"/></g><g class="arrow-line"><path class="connection real" stroke-dasharray="" d="  M563.32,62.16 L596.32,62.16" style="stroke: rgb(0, 0, 0); stroke-width: 4; fill: none; fill-opacity: 1;"/></g><g class="arrow-line"><path class="connection real" stroke-dasharray="" d="  M90.36,62.16 L118.24,62.16" style="stroke: rgb(0, 0, 0); stroke-width: 2; fill: none; fill-opacity: 1;"/></g><g class="arrow-line"><path class="connection real" stroke-dasharray="" d="  M613.32,62.16 L643.36,62.16" style="stroke: rgb(0, 0, 0); stroke-width: 2; fill: none; fill-opacity: 1;"/></g><g class="composite-shape"><path class="real" d=" M105.05,62.16 C105.05,51.11 125.95,42.16 151.74,42.16 C177.53,42.16 198.44,51.11 198.44,62.16 C198.44,73.21 177.53,82.16 151.74,82.16 C125.95,82.16 105.05,73.21 105.05,62.16 Z" style="stroke-width: 1; stroke: none; stroke-opacity: 1; fill: rgb(80, 227, 194); fill-opacity: 0.3;"/></g><g class="composite-shape"><path class="real" d=" M218.83,62.16 C218.83,51.11 239.74,42.16 265.53,42.16 C291.32,42.16 312.23,51.11 312.23,62.16 C312.23,73.21 291.32,82.16 265.53,82.16 C239.74,82.16 218.83,73.21 218.83,62.16 Z" style="stroke-width: 1; stroke: none; stroke-opacity: 1; fill: rgb(80, 227, 194); fill-opacity: 0.3;"/></g><g class="composite-shape"><path class="real" d=" M324.12,62.16 C324.12,51.11 345.03,42.16 370.82,42.16 C396.61,42.16 417.51,51.11 417.51,62.16 C417.51,73.21 396.61,82.16 370.82,82.16 C345.03,82.16 324.12,73.21 324.12,62.16 Z" style="stroke-width: 1; stroke: none; stroke-opacity: 1; fill: rgb(80, 227, 194); fill-opacity: 0.3;"/></g><g class="composite-shape"><path class="real" d=" M427.42,62.16 C427.42,51.11 448.33,42.16 474.12,42.16 C499.91,42.16 520.82,51.11 520.82,62.16 C520.82,73.21 499.91,82.16 474.12,82.16 C448.33,82.16 427.42,73.21 427.42,62.16 Z" style="stroke-width: 1; stroke: none; stroke-opacity: 1; fill: rgb(80, 227, 194); fill-opacity: 0.3;"/></g><g class="composite-shape"><path class="real" d=" M531.42,62.16 C531.42,51.11 552.33,42.16 578.12,42.16 C603.91,42.16 624.82,51.11 624.82,62.16 C624.82,73.21 603.91,82.16 578.12,82.16 C552.33,82.16 531.42,73.21 531.42,62.16 Z" style="stroke-width: 1; stroke: none; stroke-opacity: 1; fill: rgb(80, 227, 194); fill-opacity: 0.3;"/></g><g class="composite-shape"><path class="real" d=" M119.24,135.16 C119.24,130.47 123.05,126.66 127.74,126.66 C132.44,126.66 136.24,130.47 136.24,135.16 C136.24,139.85 132.44,143.66 127.74,143.66 C123.05,143.66 119.24,139.85 119.24,135.16 Z" style="stroke-width: 1; stroke: none; stroke-opacity: 1; fill: rgb(255, 0, 0); fill-opacity: 1;"/></g><g class="composite-shape"><path class="real" d=" M169.24,135.16 C169.24,130.47 173.05,126.66 177.74,126.66 C182.44,126.66 186.24,130.47 186.24,135.16 C186.24,139.85 182.44,143.66 177.74,143.66 C173.05,143.66 169.24,139.85 169.24,135.16 Z" style="stroke-width: 1; stroke: none; stroke-opacity: 1; fill: rgb(74, 144, 226); fill-opacity: 1;"/></g><g class="arrow-line"><path class="connection real" stroke-dasharray="" d="  M136.24,135.16 L169.24,135.16" style="stroke: rgb(0, 0, 0); stroke-width: 2; fill: none; fill-opacity: 1;"/></g><g class="arrow-line"><path class="connection real" stroke-dasharray="" d="  M186.24,135.16 L233.03,135.16" style="stroke: rgb(0, 0, 0); stroke-width: 4; fill: none; fill-opacity: 1;"/></g><g class="composite-shape"><path class="real" d=" M233.03,135.16 C233.03,130.47 236.84,126.66 241.53,126.66 C246.22,126.66 250.03,130.47 250.03,135.16 C250.03,139.85 246.22,143.66 241.53,143.66 C236.84,143.66 233.03,139.85 233.03,135.16 Z" style="stroke-width: 1; stroke: none; stroke-opacity: 1; fill: rgb(255, 0, 0); fill-opacity: 1;"/></g><g class="composite-shape"><path class="real" d=" M283.03,135.16 C283.03,130.47 286.84,126.66 291.53,126.66 C296.22,126.66 300.03,130.47 300.03,135.16 C300.03,139.85 296.22,143.66 291.53,143.66 C286.84,143.66 283.03,139.85 283.03,135.16 Z" style="stroke-width: 1; stroke: none; stroke-opacity: 1; fill: rgb(74, 144, 226); fill-opacity: 1;"/></g><g class="arrow-line"><path class="connection real" stroke-dasharray="" d="  M250.03,135.16 L283.03,135.16" style="stroke: rgb(0, 0, 0); stroke-width: 2; fill: none; fill-opacity: 1;"/></g><g class="arrow-line"><path class="connection real" stroke-dasharray="" d="  M300.03,135.16 L346.82,135.16" style="stroke: rgb(0, 0, 0); stroke-width: 4; fill: none; fill-opacity: 1;"/></g><g class="composite-shape"><path class="real" d=" M338.32,135.16 C338.32,130.47 342.12,126.66 346.82,126.66 C351.51,126.66 355.32,130.47 355.32,135.16 C355.32,139.85 351.51,143.66 346.82,143.66 C342.12,143.66 338.32,139.85 338.32,135.16 Z" style="stroke-width: 1; stroke: none; stroke-opacity: 1; fill: rgb(255, 0, 0); fill-opacity: 1;"/></g><g class="composite-shape"><path class="real" d=" M388.32,135.16 C388.32,130.47 392.12,126.66 396.82,126.66 C401.51,126.66 405.32,130.47 405.32,135.16 C405.32,139.85 401.51,143.66 396.82,143.66 C392.12,143.66 388.32,139.85 388.32,135.16 Z" style="stroke-width: 1; stroke: none; stroke-opacity: 1; fill: rgb(74, 144, 226); fill-opacity: 1;"/></g><g class="arrow-line"><path class="connection real" stroke-dasharray="" d="  M355.32,135.16 L388.32,135.16" style="stroke: rgb(0, 0, 0); stroke-width: 2; fill: none; fill-opacity: 1;"/></g><g class="arrow-line"><path class="connection real" stroke-dasharray="" d="  M405.03,135.16 L451.82,135.16" style="stroke: rgb(0, 0, 0); stroke-width: 4; fill: none; fill-opacity: 1;"/></g><g class="composite-shape"><path class="real" d=" M443.32,135.16 C443.32,130.47 447.12,126.66 451.82,126.66 C456.51,126.66 460.32,130.47 460.32,135.16 C460.32,139.85 456.51,143.66 451.82,143.66 C447.12,143.66 443.32,139.85 443.32,135.16 Z" style="stroke-width: 1; stroke: none; stroke-opacity: 1; fill: rgb(255, 0, 0); fill-opacity: 1;"/></g><g class="composite-shape"><path class="real" d=" M493.32,135.16 C493.32,130.47 497.12,126.66 501.82,126.66 C506.51,126.66 510.32,130.47 510.32,135.16 C510.32,139.85 506.51,143.66 501.82,143.66 C497.12,143.66 493.32,139.85 493.32,135.16 Z" style="stroke-width: 1; stroke: none; stroke-opacity: 1; fill: rgb(74, 144, 226); fill-opacity: 1;"/></g><g class="arrow-line"><path class="connection real" stroke-dasharray="" d="  M460.32,135.16 L493.32,135.16" style="stroke: rgb(0, 0, 0); stroke-width: 2; fill: none; fill-opacity: 1;"/></g><g class="arrow-line"><path class="connection real" stroke-dasharray="" d="  M509.03,135.16 L555.82,135.16" style="stroke: rgb(0, 0, 0); stroke-width: 4; fill: none; fill-opacity: 1;"/></g><g class="composite-shape"><path class="real" d=" M547.32,135.16 C547.32,130.47 551.12,126.66 555.82,126.66 C560.51,126.66 564.32,130.47 564.32,135.16 C564.32,139.85 560.51,143.66 555.82,143.66 C551.12,143.66 547.32,139.85 547.32,135.16 Z" style="stroke-width: 1; stroke: none; stroke-opacity: 1; fill: rgb(255, 0, 0); fill-opacity: 1;"/></g><g class="composite-shape"><path class="real" d=" M597.32,135.16 C597.32,130.47 601.12,126.66 605.82,126.66 C610.51,126.66 614.32,130.47 614.32,135.16 C614.32,139.85 610.51,143.66 605.82,143.66 C601.12,143.66 597.32,139.85 597.32,135.16 Z" style="stroke-width: 1; stroke: none; stroke-opacity: 1; fill: rgb(74, 144, 226); fill-opacity: 1;"/></g><g class="arrow-line"><path class="connection real" stroke-dasharray="" d="  M564.32,135.16 L597.32,135.16" style="stroke: rgb(0, 0, 0); stroke-width: 2; fill: none; fill-opacity: 1;"/></g><g class="arrow-line"><path class="connection real" stroke-dasharray="" d="  M91.36,135.16 L119.24,135.16" style="stroke: rgb(0, 0, 0); stroke-width: 4; fill: none; fill-opacity: 1;"/></g><g class="arrow-line"><path class="connection real" stroke-dasharray="" d="  M614.32,135.16 L644.36,135.16" style="stroke: rgb(0, 0, 0); stroke-width: 4; fill: none; fill-opacity: 1;"/></g><g class="composite-shape"><path class="real" d=" M105.3,115.16 C105.3,115.16 105.3,115.16 105.3,115.16 C131.09,115.16 152,124.11 152,135.16 C152,146.21 131.09,155.16 105.3,155.16 L105.3,135.16 Z" style="stroke-width: 1; stroke: none; stroke-opacity: 1; fill: rgb(226, 35, 245); fill-opacity: 0.31;"/><path class="real" d=" M105.3,115.16 C105.3,115.16 105.3,115.16 105.3,115.16 C131.09,115.16 152,124.11 152,135.16 C152,146.21 131.09,155.16 105.3,155.16" style="stroke-width: 1; stroke: none; stroke-opacity: 1; fill: none; fill-opacity: 0.31;"/></g><g class="composite-shape"><path class="real" d=" M162.94,135.16 C162.94,124.11 183.85,115.16 209.64,115.16 C235.43,115.16 256.33,124.11 256.33,135.16 C256.33,146.21 235.43,155.16 209.64,155.16 C183.85,155.16 162.94,146.21 162.94,135.16 Z" style="stroke-width: 1; stroke: none; stroke-opacity: 1; fill: rgb(245, 166, 35); fill-opacity: 0.32;"/></g><g class="composite-shape"><path class="real" d=" M271.73,135.16 C271.73,124.11 292.63,115.16 318.42,115.16 C344.21,115.16 365.12,124.11 365.12,135.16 C365.12,146.21 344.21,155.16 318.42,155.16 C292.63,155.16 271.73,146.21 271.73,135.16 Z" style="stroke-width: 1; stroke: none; stroke-opacity: 1; fill: rgb(245, 166, 35); fill-opacity: 0.32;"/></g><g class="composite-shape"><path class="real" d=" M376.82,135.16 C376.82,124.11 397.72,115.16 423.51,115.16 C449.3,115.16 470.21,124.11 470.21,135.16 C470.21,146.21 449.3,155.16 423.51,155.16 C397.72,155.16 376.82,146.21 376.82,135.16 Z" style="stroke-width: 1; stroke: none; stroke-opacity: 1; fill: rgb(245, 166, 35); fill-opacity: 0.32;"/></g><g class="composite-shape"><path class="real" d=" M481.73,135.16 C481.73,124.11 502.63,115.16 528.42,115.16 C554.21,115.16 575.12,124.11 575.12,135.16 C575.12,146.21 554.21,155.16 528.42,155.16 C502.63,155.16 481.73,146.21 481.73,135.16 Z" style="stroke-width: 1; stroke: none; stroke-opacity: 1; fill: rgb(245, 166, 35); fill-opacity: 0.32;"/></g><g class="composite-shape"><path class="real" d=" M634.3,153.64 C608.51,153.64 587.61,144.69 587.61,133.64 C587.61,122.6 608.51,113.64 634.3,113.64 C634.3,113.64 634.3,113.64 634.3,113.64 L634.3,133.64 Z" style="stroke-width: 1; stroke: none; stroke-opacity: 1; fill: rgb(226, 35, 245); fill-opacity: 0.31;"/><path class="real" d=" M634.3,153.64 C608.51,153.64 587.61,144.69 587.61,133.64 C587.61,122.6 608.51,113.64 634.3,113.64 C634.3,113.64 634.3,113.64 634.3,113.64" style="stroke-width: 1; stroke: none; stroke-opacity: 1; fill: none; fill-opacity: 0.31;"/></g><g class="arrow-line"><path class="connection real" stroke-dasharray="" d="  M112.74,173.17 L112.74,154.17" style="stroke: rgb(255, 0, 254); stroke-opacity: 1; stroke-width: 2; fill: none; fill-opacity: 1;"/><g stroke="rgb(255,0,254)" stroke-opacity="1" transform="matrix(3.061616997868383e-16,1,-1,3.061616997868383e-16,112.74347686767581,151.16522216796875)" style="stroke: rgb(255, 0, 254); stroke-width: 2;"><path d=" M11.37,-3.42 Q5.16,-0.47 0,0 Q5.16,0.47 11.37,3.42"/></g></g><g class="arrow-line"><path class="connection real" stroke-dasharray="" d="  M621.74,170.17 L621.74,151.17" style="stroke: rgb(255, 0, 254); stroke-opacity: 1; stroke-width: 2; fill: none; fill-opacity: 1;"/><g stroke="rgb(255,0,254)" stroke-opacity="1" transform="matrix(3.061616997868383e-16,1,-1,3.061616997868383e-16,621.7434768676758,148.16522216796875)" style="stroke: rgb(255, 0, 254); stroke-width: 2;"><path d=" M11.37,-3.42 Q5.16,-0.47 0,0 Q5.16,0.47 11.37,3.42"/></g></g><g/></g><g/><g/><g/></svg>
        <svg xmlns="http://www.w3.org/2000/svg" xmlns:xlink="http://www.w3.org/1999/xlink" width="660" height="214" style="width:660px;height:214px;font-family:LatinModern-Math, LatinModern, Asana-Math, Asana;background:#FFF;"><g><g><g><text x="122.23995971679688" y="53.94000244140625" style="white-space:pre;stroke:none;fill:rgb(255,255,255);fill-opacity:1;font-size:12px;font-family:Arial, Helvetica, sans-serif;font-weight:400;font-style:normal;dominant-baseline:text-before-edge;text-decoration:none solid rgb(255, 255, 255);">A</text></g></g></g><g><g><g><text x="173.23995971679688" y="54.93000793457031" style="white-space:pre;stroke:none;fill:rgb(255,255,255);fill-opacity:1;font-size:12px;font-family:Arial, Helvetica, sans-serif;font-weight:400;font-style:normal;dominant-baseline:text-before-edge;text-decoration:none solid rgb(255, 255, 255);">B</text></g></g></g><g><g><g><text x="236.23995971679688" y="53.93000793457031" style="white-space:pre;stroke:none;fill:rgb(255,255,255);fill-opacity:1;font-size:12px;font-family:Arial, Helvetica, sans-serif;font-weight:400;font-style:normal;dominant-baseline:text-before-edge;text-decoration:none solid rgb(255, 255, 255);">A</text></g></g></g><g><g><g><text x="287.2399597167969" y="54.93000793457031" style="white-space:pre;stroke:none;fill:rgb(255,255,255);fill-opacity:1;font-size:12px;font-family:Arial, Helvetica, sans-serif;font-weight:400;font-style:normal;dominant-baseline:text-before-edge;text-decoration:none solid rgb(255, 255, 255);">B</text></g></g></g><g><g><g><text x="341.2399597167969" y="53.93000793457031" style="white-space:pre;stroke:none;fill:rgb(255,255,255);fill-opacity:1;font-size:12px;font-family:Arial, Helvetica, sans-serif;font-weight:400;font-style:normal;dominant-baseline:text-before-edge;text-decoration:none solid rgb(255, 255, 255);">A</text></g></g></g><g><g><g><text x="392.2399597167969" y="54.93000793457031" style="white-space:pre;stroke:none;fill:rgb(255,255,255);fill-opacity:1;font-size:12px;font-family:Arial, Helvetica, sans-serif;font-weight:400;font-style:normal;dominant-baseline:text-before-edge;text-decoration:none solid rgb(255, 255, 255);">B</text></g></g></g><g><g><g><text x="446.2399597167969" y="53.93000793457031" style="white-space:pre;stroke:none;fill:rgb(255,255,255);fill-opacity:1;font-size:12px;font-family:Arial, Helvetica, sans-serif;font-weight:400;font-style:normal;dominant-baseline:text-before-edge;text-decoration:none solid rgb(255, 255, 255);">A</text></g></g></g><g><g><g><text x="497.2399597167969" y="54.93000793457031" style="white-space:pre;stroke:none;fill:rgb(255,255,255);fill-opacity:1;font-size:12px;font-family:Arial, Helvetica, sans-serif;font-weight:400;font-style:normal;dominant-baseline:text-before-edge;text-decoration:none solid rgb(255, 255, 255);">B</text></g></g></g><g><g><g><text x="550.2399597167969" y="53.93000793457031" style="white-space:pre;stroke:none;fill:rgb(255,255,255);fill-opacity:1;font-size:12px;font-family:Arial, Helvetica, sans-serif;font-weight:400;font-style:normal;dominant-baseline:text-before-edge;text-decoration:none solid rgb(255, 255, 255);">A</text></g></g></g><g><g><g><text x="601.2399597167969" y="54.93000793457031" style="white-space:pre;stroke:none;fill:rgb(255,255,255);fill-opacity:1;font-size:12px;font-family:Arial, Helvetica, sans-serif;font-weight:400;font-style:normal;dominant-baseline:text-before-edge;text-decoration:none solid rgb(255, 255, 255);">B</text></g></g></g><g><g><g><g transform="matrix(1,0,0,1,144.23995971679688,50.02000427246094)"><path transform="matrix(0.017,0,0,-0.017,0,0)" d="M633 671C633 680 627 683 619 683C594 683 533 680 508 680L361 683C352 683 340 683 340 663C340 652 348 652 374 652C397 652 407 652 432 650C456 647 463 644 463 630C463 624 461 617 459 609L344 150C320 53 252 0 200 0C174 0 121 10 105 62C108 61 117 61 117 61C156 61 182 95 182 125C182 157 155 167 138 167C120 167 71 155 71 87C71 25 124 -22 203 -22C295 -22 399 44 424 143L541 610C549 643 551 652 606 652C622 652 633 652 633 671Z" stroke="rgb(0,0,0)" stroke-opacity="1" stroke-width="8" fill="rgb(0,0,0)" fill-opacity="1"></path></g></g><g><g><g><g><g transform="matrix(1,0,0,1,154.18997192382812,53.77000427246094)"><path transform="matrix(0.012,0,0,-0.012,0,0)" d="M419 0L419 31L387 31C297 31 294 42 294 79L294 640C294 664 294 666 271 666C209 602 121 602 89 602L89 571C109 571 168 571 220 597L220 79C220 43 217 31 127 31L95 31L95 0C130 3 217 3 257 3C297 3 384 3 419 0Z" stroke="rgb(0,0,0)" stroke-opacity="1" stroke-width="8" fill="rgb(0,0,0)" fill-opacity="1"></path></g></g></g></g></g></g></g><g><g><g><g transform="matrix(1,0,0,1,204.23995971679688,50.02000427246094)"><path transform="matrix(0.017,0,0,-0.017,0,0)" d="M633 671C633 680 627 683 619 683C594 683 533 680 508 680L361 683C352 683 340 683 340 663C340 652 348 652 374 652C397 652 407 652 432 650C456 647 463 644 463 630C463 624 461 617 459 609L344 150C320 53 252 0 200 0C174 0 121 10 105 62C108 61 117 61 117 61C156 61 182 95 182 125C182 157 155 167 138 167C120 167 71 155 71 87C71 25 124 -22 203 -22C295 -22 399 44 424 143L541 610C549 643 551 652 606 652C622 652 633 652 633 671Z" stroke="rgb(0,0,0)" stroke-opacity="1" stroke-width="8" fill="rgb(0,0,0)" fill-opacity="1"></path></g></g><g><g><g><g><g transform="matrix(1,0,0,1,214.18997192382812,53.77000427246094)"><path transform="matrix(0.012,0,0,-0.012,0,0)" d="M449 174L424 174C419 144 412 100 402 85C395 77 329 77 307 77L127 77L233 180C389 318 449 372 449 472C449 586 359 666 237 666C124 666 50 574 50 485C50 429 100 429 103 429C120 429 155 441 155 482C155 508 137 534 102 534C94 534 92 534 89 533C112 598 166 635 224 635C315 635 358 554 358 472C358 392 308 313 253 251L61 37C50 26 50 24 50 0L421 0Z" stroke="rgb(0,0,0)" stroke-opacity="1" stroke-width="8" fill="rgb(0,0,0)" fill-opacity="1"></path></g></g></g></g></g></g></g><g><g><g><g transform="matrix(1,0,0,1,258.2399597167969,51.02000427246094)"><path transform="matrix(0.017,0,0,-0.017,0,0)" d="M633 671C633 680 627 683 619 683C594 683 533 680 508 680L361 683C352 683 340 683 340 663C340 652 348 652 374 652C397 652 407 652 432 650C456 647 463 644 463 630C463 624 461 617 459 609L344 150C320 53 252 0 200 0C174 0 121 10 105 62C108 61 117 61 117 61C156 61 182 95 182 125C182 157 155 167 138 167C120 167 71 155 71 87C71 25 124 -22 203 -22C295 -22 399 44 424 143L541 610C549 643 551 652 606 652C622 652 633 652 633 671Z" stroke="rgb(0,0,0)" stroke-opacity="1" stroke-width="8" fill="rgb(0,0,0)" fill-opacity="1"></path></g></g><g><g><g><g><g transform="matrix(1,0,0,1,268.1899719238281,54.77000427246094)"><path transform="matrix(0.012,0,0,-0.012,0,0)" d="M419 0L419 31L387 31C297 31 294 42 294 79L294 640C294 664 294 666 271 666C209 602 121 602 89 602L89 571C109 571 168 571 220 597L220 79C220 43 217 31 127 31L95 31L95 0C130 3 217 3 257 3C297 3 384 3 419 0Z" stroke="rgb(0,0,0)" stroke-opacity="1" stroke-width="8" fill="rgb(0,0,0)" fill-opacity="1"></path></g></g></g></g></g></g></g><g><g><g><g transform="matrix(1,0,0,1,313.2399597167969,51.02000427246094)"><path transform="matrix(0.017,0,0,-0.017,0,0)" d="M633 671C633 680 627 683 619 683C594 683 533 680 508 680L361 683C352 683 340 683 340 663C340 652 348 652 374 652C397 652 407 652 432 650C456 647 463 644 463 630C463 624 461 617 459 609L344 150C320 53 252 0 200 0C174 0 121 10 105 62C108 61 117 61 117 61C156 61 182 95 182 125C182 157 155 167 138 167C120 167 71 155 71 87C71 25 124 -22 203 -22C295 -22 399 44 424 143L541 610C549 643 551 652 606 652C622 652 633 652 633 671Z" stroke="rgb(0,0,0)" stroke-opacity="1" stroke-width="8" fill="rgb(0,0,0)" fill-opacity="1"></path></g></g><g><g><g><g><g transform="matrix(1,0,0,1,323.1899719238281,54.77000427246094)"><path transform="matrix(0.012,0,0,-0.012,0,0)" d="M449 174L424 174C419 144 412 100 402 85C395 77 329 77 307 77L127 77L233 180C389 318 449 372 449 472C449 586 359 666 237 666C124 666 50 574 50 485C50 429 100 429 103 429C120 429 155 441 155 482C155 508 137 534 102 534C94 534 92 534 89 533C112 598 166 635 224 635C315 635 358 554 358 472C358 392 308 313 253 251L61 37C50 26 50 24 50 0L421 0Z" stroke="rgb(0,0,0)" stroke-opacity="1" stroke-width="8" fill="rgb(0,0,0)" fill-opacity="1"></path></g></g></g></g></g></g></g><g><g><g><g transform="matrix(1,0,0,1,366.2399597167969,50.02000427246094)"><path transform="matrix(0.017,0,0,-0.017,0,0)" d="M633 671C633 680 627 683 619 683C594 683 533 680 508 680L361 683C352 683 340 683 340 663C340 652 348 652 374 652C397 652 407 652 432 650C456 647 463 644 463 630C463 624 461 617 459 609L344 150C320 53 252 0 200 0C174 0 121 10 105 62C108 61 117 61 117 61C156 61 182 95 182 125C182 157 155 167 138 167C120 167 71 155 71 87C71 25 124 -22 203 -22C295 -22 399 44 424 143L541 610C549 643 551 652 606 652C622 652 633 652 633 671Z" stroke="rgb(0,0,0)" stroke-opacity="1" stroke-width="8" fill="rgb(0,0,0)" fill-opacity="1"></path></g></g><g><g><g><g><g transform="matrix(1,0,0,1,376.1899719238281,53.77000427246094)"><path transform="matrix(0.012,0,0,-0.012,0,0)" d="M419 0L419 31L387 31C297 31 294 42 294 79L294 640C294 664 294 666 271 666C209 602 121 602 89 602L89 571C109 571 168 571 220 597L220 79C220 43 217 31 127 31L95 31L95 0C130 3 217 3 257 3C297 3 384 3 419 0Z" stroke="rgb(0,0,0)" stroke-opacity="1" stroke-width="8" fill="rgb(0,0,0)" fill-opacity="1"></path></g></g></g></g></g></g></g><g><g><g><g transform="matrix(1,0,0,1,421.2399597167969,50.02000427246094)"><path transform="matrix(0.017,0,0,-0.017,0,0)" d="M633 671C633 680 627 683 619 683C594 683 533 680 508 680L361 683C352 683 340 683 340 663C340 652 348 652 374 652C397 652 407 652 432 650C456 647 463 644 463 630C463 624 461 617 459 609L344 150C320 53 252 0 200 0C174 0 121 10 105 62C108 61 117 61 117 61C156 61 182 95 182 125C182 157 155 167 138 167C120 167 71 155 71 87C71 25 124 -22 203 -22C295 -22 399 44 424 143L541 610C549 643 551 652 606 652C622 652 633 652 633 671Z" stroke="rgb(0,0,0)" stroke-opacity="1" stroke-width="8" fill="rgb(0,0,0)" fill-opacity="1"></path></g></g><g><g><g><g><g transform="matrix(1,0,0,1,431.1899719238281,53.77000427246094)"><path transform="matrix(0.012,0,0,-0.012,0,0)" d="M449 174L424 174C419 144 412 100 402 85C395 77 329 77 307 77L127 77L233 180C389 318 449 372 449 472C449 586 359 666 237 666C124 666 50 574 50 485C50 429 100 429 103 429C120 429 155 441 155 482C155 508 137 534 102 534C94 534 92 534 89 533C112 598 166 635 224 635C315 635 358 554 358 472C358 392 308 313 253 251L61 37C50 26 50 24 50 0L421 0Z" stroke="rgb(0,0,0)" stroke-opacity="1" stroke-width="8" fill="rgb(0,0,0)" fill-opacity="1"></path></g></g></g></g></g></g></g><g><g><g><g transform="matrix(1,0,0,1,469.2399597167969,50.02000427246094)"><path transform="matrix(0.017,0,0,-0.017,0,0)" d="M633 671C633 680 627 683 619 683C594 683 533 680 508 680L361 683C352 683 340 683 340 663C340 652 348 652 374 652C397 652 407 652 432 650C456 647 463 644 463 630C463 624 461 617 459 609L344 150C320 53 252 0 200 0C174 0 121 10 105 62C108 61 117 61 117 61C156 61 182 95 182 125C182 157 155 167 138 167C120 167 71 155 71 87C71 25 124 -22 203 -22C295 -22 399 44 424 143L541 610C549 643 551 652 606 652C622 652 633 652 633 671Z" stroke="rgb(0,0,0)" stroke-opacity="1" stroke-width="8" fill="rgb(0,0,0)" fill-opacity="1"></path></g></g><g><g><g><g><g transform="matrix(1,0,0,1,479.1899719238281,53.77000427246094)"><path transform="matrix(0.012,0,0,-0.012,0,0)" d="M419 0L419 31L387 31C297 31 294 42 294 79L294 640C294 664 294 666 271 666C209 602 121 602 89 602L89 571C109 571 168 571 220 597L220 79C220 43 217 31 127 31L95 31L95 0C130 3 217 3 257 3C297 3 384 3 419 0Z" stroke="rgb(0,0,0)" stroke-opacity="1" stroke-width="8" fill="rgb(0,0,0)" fill-opacity="1"></path></g></g></g></g></g></g></g><g><g><g><g transform="matrix(1,0,0,1,524.2399597167969,50.02000427246094)"><path transform="matrix(0.017,0,0,-0.017,0,0)" d="M633 671C633 680 627 683 619 683C594 683 533 680 508 680L361 683C352 683 340 683 340 663C340 652 348 652 374 652C397 652 407 652 432 650C456 647 463 644 463 630C463 624 461 617 459 609L344 150C320 53 252 0 200 0C174 0 121 10 105 62C108 61 117 61 117 61C156 61 182 95 182 125C182 157 155 167 138 167C120 167 71 155 71 87C71 25 124 -22 203 -22C295 -22 399 44 424 143L541 610C549 643 551 652 606 652C622 652 633 652 633 671Z" stroke="rgb(0,0,0)" stroke-opacity="1" stroke-width="8" fill="rgb(0,0,0)" fill-opacity="1"></path></g></g><g><g><g><g><g transform="matrix(1,0,0,1,534.1899719238281,53.77000427246094)"><path transform="matrix(0.012,0,0,-0.012,0,0)" d="M449 174L424 174C419 144 412 100 402 85C395 77 329 77 307 77L127 77L233 180C389 318 449 372 449 472C449 586 359 666 237 666C124 666 50 574 50 485C50 429 100 429 103 429C120 429 155 441 155 482C155 508 137 534 102 534C94 534 92 534 89 533C112 598 166 635 224 635C315 635 358 554 358 472C358 392 308 313 253 251L61 37C50 26 50 24 50 0L421 0Z" stroke="rgb(0,0,0)" stroke-opacity="1" stroke-width="8" fill="rgb(0,0,0)" fill-opacity="1"></path></g></g></g></g></g></g></g><g><g><g><g transform="matrix(1,0,0,1,573.2399597167969,50.02000427246094)"><path transform="matrix(0.017,0,0,-0.017,0,0)" d="M633 671C633 680 627 683 619 683C594 683 533 680 508 680L361 683C352 683 340 683 340 663C340 652 348 652 374 652C397 652 407 652 432 650C456 647 463 644 463 630C463 624 461 617 459 609L344 150C320 53 252 0 200 0C174 0 121 10 105 62C108 61 117 61 117 61C156 61 182 95 182 125C182 157 155 167 138 167C120 167 71 155 71 87C71 25 124 -22 203 -22C295 -22 399 44 424 143L541 610C549 643 551 652 606 652C622 652 633 652 633 671Z" stroke="rgb(0,0,0)" stroke-opacity="1" stroke-width="8" fill="rgb(0,0,0)" fill-opacity="1"></path></g></g><g><g><g><g><g transform="matrix(1,0,0,1,583.1899719238281,53.77000427246094)"><path transform="matrix(0.012,0,0,-0.012,0,0)" d="M419 0L419 31L387 31C297 31 294 42 294 79L294 640C294 664 294 666 271 666C209 602 121 602 89 602L89 571C109 571 168 571 220 597L220 79C220 43 217 31 127 31L95 31L95 0C130 3 217 3 257 3C297 3 384 3 419 0Z" stroke="rgb(0,0,0)" stroke-opacity="1" stroke-width="8" fill="rgb(0,0,0)" fill-opacity="1"></path></g></g></g></g></g></g></g><g><g><g><g transform="matrix(1,0,0,1,17.239990234375,68.02000427246094)"><path transform="matrix(0.017,0,0,-0.017,0,0)" d="M633 671C633 680 627 683 619 683C594 683 533 680 508 680L361 683C352 683 340 683 340 663C340 652 348 652 374 652C397 652 407 652 432 650C456 647 463 644 463 630C463 624 461 617 459 609L344 150C320 53 252 0 200 0C174 0 121 10 105 62C108 61 117 61 117 61C156 61 182 95 182 125C182 157 155 167 138 167C120 167 71 155 71 87C71 25 124 -22 203 -22C295 -22 399 44 424 143L541 610C549 643 551 652 606 652C622 652 633 652 633 671Z" stroke="rgb(0,0,0)" stroke-opacity="1" stroke-width="8" fill="rgb(0,0,0)" fill-opacity="1"></path></g></g><g><g><g><g><g transform="matrix(1,0,0,1,27.189971923828125,71.77000427246094)"><path transform="matrix(0.012,0,0,-0.012,0,0)" d="M419 0L419 31L387 31C297 31 294 42 294 79L294 640C294 664 294 666 271 666C209 602 121 602 89 602L89 571C109 571 168 571 220 597L220 79C220 43 217 31 127 31L95 31L95 0C130 3 217 3 257 3C297 3 384 3 419 0Z" stroke="rgb(0,0,0)" stroke-opacity="1" stroke-width="8" fill="rgb(0,0,0)" fill-opacity="1"></path></g></g></g></g></g><g><g transform="matrix(1,0,0,1,39.30999755859375,68.02000427246094)"><path transform="matrix(0.017,0,0,-0.017,0,0)" d="M688 230C705 238 705 262 688 270L107 545C82 556 65 520 89 509L637 250L89 -9C65 -20 82 -56 107 -45Z" stroke="rgb(0,0,0)" stroke-opacity="1" stroke-width="8" fill="rgb(0,0,0)" fill-opacity="1"></path></g></g><g><g transform="matrix(1,0,0,1,57.639984130859375,68.02000427246094)"><path transform="matrix(0.017,0,0,-0.017,0,0)" d="M633 671C633 680 627 683 619 683C594 683 533 680 508 680L361 683C352 683 340 683 340 663C340 652 348 652 374 652C397 652 407 652 432 650C456 647 463 644 463 630C463 624 461 617 459 609L344 150C320 53 252 0 200 0C174 0 121 10 105 62C108 61 117 61 117 61C156 61 182 95 182 125C182 157 155 167 138 167C120 167 71 155 71 87C71 25 124 -22 203 -22C295 -22 399 44 424 143L541 610C549 643 551 652 606 652C622 652 633 652 633 671Z" stroke="rgb(0,0,0)" stroke-opacity="1" stroke-width="8" fill="rgb(0,0,0)" fill-opacity="1"></path></g></g><g><g><g><g><g transform="matrix(1,0,0,1,67.58999633789062,71.77000427246094)"><path transform="matrix(0.012,0,0,-0.012,0,0)" d="M449 174L424 174C419 144 412 100 402 85C395 77 329 77 307 77L127 77L233 180C389 318 449 372 449 472C449 586 359 666 237 666C124 666 50 574 50 485C50 429 100 429 103 429C120 429 155 441 155 482C155 508 137 534 102 534C94 534 92 534 89 533C112 598 166 635 224 635C315 635 358 554 358 472C358 392 308 313 253 251L61 37C50 26 50 24 50 0L421 0Z" stroke="rgb(0,0,0)" stroke-opacity="1" stroke-width="8" fill="rgb(0,0,0)" fill-opacity="1"></path></g></g></g></g></g></g></g><g><g><g><g transform="matrix(1,0,0,1,14.239990234375,138.01998901367188)"><path transform="matrix(0.017,0,0,-0.017,0,0)" d="M633 671C633 680 627 683 619 683C594 683 533 680 508 680L361 683C352 683 340 683 340 663C340 652 348 652 374 652C397 652 407 652 432 650C456 647 463 644 463 630C463 624 461 617 459 609L344 150C320 53 252 0 200 0C174 0 121 10 105 62C108 61 117 61 117 61C156 61 182 95 182 125C182 157 155 167 138 167C120 167 71 155 71 87C71 25 124 -22 203 -22C295 -22 399 44 424 143L541 610C549 643 551 652 606 652C622 652 633 652 633 671Z" stroke="rgb(0,0,0)" stroke-opacity="1" stroke-width="8" fill="rgb(0,0,0)" fill-opacity="1"></path></g></g><g><g><g><g><g transform="matrix(1,0,0,1,24.189971923828125,141.76998901367188)"><path transform="matrix(0.012,0,0,-0.012,0,0)" d="M419 0L419 31L387 31C297 31 294 42 294 79L294 640C294 664 294 666 271 666C209 602 121 602 89 602L89 571C109 571 168 571 220 597L220 79C220 43 217 31 127 31L95 31L95 0C130 3 217 3 257 3C297 3 384 3 419 0Z" stroke="rgb(0,0,0)" stroke-opacity="1" stroke-width="8" fill="rgb(0,0,0)" fill-opacity="1"></path></g></g></g></g></g><g><g transform="matrix(1,0,0,1,36.30999755859375,138.01998901367188)"><path transform="matrix(0.017,0,0,-0.017,0,0)" d="M689 -9L141 250L689 509C713 520 696 556 671 545L90 270C73 262 73 238 90 230L671 -45C696 -56 713 -20 689 -9Z" stroke="rgb(0,0,0)" stroke-opacity="1" stroke-width="8" fill="rgb(0,0,0)" fill-opacity="1"></path></g></g><g><g transform="matrix(1,0,0,1,54.639984130859375,138.01998901367188)"><path transform="matrix(0.017,0,0,-0.017,0,0)" d="M633 671C633 680 627 683 619 683C594 683 533 680 508 680L361 683C352 683 340 683 340 663C340 652 348 652 374 652C397 652 407 652 432 650C456 647 463 644 463 630C463 624 461 617 459 609L344 150C320 53 252 0 200 0C174 0 121 10 105 62C108 61 117 61 117 61C156 61 182 95 182 125C182 157 155 167 138 167C120 167 71 155 71 87C71 25 124 -22 203 -22C295 -22 399 44 424 143L541 610C549 643 551 652 606 652C622 652 633 652 633 671Z" stroke="rgb(0,0,0)" stroke-opacity="1" stroke-width="8" fill="rgb(0,0,0)" fill-opacity="1"></path></g></g><g><g><g><g><g transform="matrix(1,0,0,1,64.58999633789062,141.76998901367188)"><path transform="matrix(0.012,0,0,-0.012,0,0)" d="M449 174L424 174C419 144 412 100 402 85C395 77 329 77 307 77L127 77L233 180C389 318 449 372 449 472C449 586 359 666 237 666C124 666 50 574 50 485C50 429 100 429 103 429C120 429 155 441 155 482C155 508 137 534 102 534C94 534 92 534 89 533C112 598 166 635 224 635C315 635 358 554 358 472C358 392 308 313 253 251L61 37C50 26 50 24 50 0L421 0Z" stroke="rgb(0,0,0)" stroke-opacity="1" stroke-width="8" fill="rgb(0,0,0)" fill-opacity="1"></path></g></g></g></g></g></g></g><g><g><g><text x="123.23995971679688" y="126.94000244140625" style="white-space:pre;stroke:none;fill:rgb(255,255,255);fill-opacity:1;font-size:12px;font-family:Arial, Helvetica, sans-serif;font-weight:400;font-style:normal;dominant-baseline:text-before-edge;text-decoration:none solid rgb(255, 255, 255);">A</text></g></g></g><g><g><g><text x="174.23995971679688" y="127.92999267578125" style="white-space:pre;stroke:none;fill:rgb(255,255,255);fill-opacity:1;font-size:12px;font-family:Arial, Helvetica, sans-serif;font-weight:400;font-style:normal;dominant-baseline:text-before-edge;text-decoration:none solid rgb(255, 255, 255);">B</text></g></g></g><g><g><g><text x="237.23995971679688" y="126.92999267578125" style="white-space:pre;stroke:none;fill:rgb(255,255,255);fill-opacity:1;font-size:12px;font-family:Arial, Helvetica, sans-serif;font-weight:400;font-style:normal;dominant-baseline:text-before-edge;text-decoration:none solid rgb(255, 255, 255);">A</text></g></g></g><g><g><g><text x="288.2399597167969" y="127.92999267578125" style="white-space:pre;stroke:none;fill:rgb(255,255,255);fill-opacity:1;font-size:12px;font-family:Arial, Helvetica, sans-serif;font-weight:400;font-style:normal;dominant-baseline:text-before-edge;text-decoration:none solid rgb(255, 255, 255);">B</text></g></g></g><g><g><g><text x="342.2399597167969" y="126.92999267578125" style="white-space:pre;stroke:none;fill:rgb(255,255,255);fill-opacity:1;font-size:12px;font-family:Arial, Helvetica, sans-serif;font-weight:400;font-style:normal;dominant-baseline:text-before-edge;text-decoration:none solid rgb(255, 255, 255);">A</text></g></g></g><g><g><g><text x="393.2399597167969" y="127.92999267578125" style="white-space:pre;stroke:none;fill:rgb(255,255,255);fill-opacity:1;font-size:12px;font-family:Arial, Helvetica, sans-serif;font-weight:400;font-style:normal;dominant-baseline:text-before-edge;text-decoration:none solid rgb(255, 255, 255);">B</text></g></g></g><g><g><g><text x="447.2399597167969" y="126.92999267578125" style="white-space:pre;stroke:none;fill:rgb(255,255,255);fill-opacity:1;font-size:12px;font-family:Arial, Helvetica, sans-serif;font-weight:400;font-style:normal;dominant-baseline:text-before-edge;text-decoration:none solid rgb(255, 255, 255);">A</text></g></g></g><g><g><g><text x="498.2399597167969" y="127.92999267578125" style="white-space:pre;stroke:none;fill:rgb(255,255,255);fill-opacity:1;font-size:12px;font-family:Arial, Helvetica, sans-serif;font-weight:400;font-style:normal;dominant-baseline:text-before-edge;text-decoration:none solid rgb(255, 255, 255);">B</text></g></g></g><g><g><g><text x="551.2399597167969" y="126.92999267578125" style="white-space:pre;stroke:none;fill:rgb(255,255,255);fill-opacity:1;font-size:12px;font-family:Arial, Helvetica, sans-serif;font-weight:400;font-style:normal;dominant-baseline:text-before-edge;text-decoration:none solid rgb(255, 255, 255);">A</text></g></g></g><g><g><g><text x="602.2399597167969" y="127.92999267578125" style="white-space:pre;stroke:none;fill:rgb(255,255,255);fill-opacity:1;font-size:12px;font-family:Arial, Helvetica, sans-serif;font-weight:400;font-style:normal;dominant-baseline:text-before-edge;text-decoration:none solid rgb(255, 255, 255);">B</text></g></g></g><g><g><g><g transform="matrix(1,0,0,1,145.23995971679688,123.01998901367188)"><path transform="matrix(0.017,0,0,-0.017,0,0)" d="M633 671C633 680 627 683 619 683C594 683 533 680 508 680L361 683C352 683 340 683 340 663C340 652 348 652 374 652C397 652 407 652 432 650C456 647 463 644 463 630C463 624 461 617 459 609L344 150C320 53 252 0 200 0C174 0 121 10 105 62C108 61 117 61 117 61C156 61 182 95 182 125C182 157 155 167 138 167C120 167 71 155 71 87C71 25 124 -22 203 -22C295 -22 399 44 424 143L541 610C549 643 551 652 606 652C622 652 633 652 633 671Z" stroke="rgb(0,0,0)" stroke-opacity="1" stroke-width="8" fill="rgb(0,0,0)" fill-opacity="1"></path></g></g><g><g><g><g><g transform="matrix(1,0,0,1,155.18997192382812,126.76998901367188)"><path transform="matrix(0.012,0,0,-0.012,0,0)" d="M419 0L419 31L387 31C297 31 294 42 294 79L294 640C294 664 294 666 271 666C209 602 121 602 89 602L89 571C109 571 168 571 220 597L220 79C220 43 217 31 127 31L95 31L95 0C130 3 217 3 257 3C297 3 384 3 419 0Z" stroke="rgb(0,0,0)" stroke-opacity="1" stroke-width="8" fill="rgb(0,0,0)" fill-opacity="1"></path></g></g></g></g></g></g></g><g><g><g><g transform="matrix(1,0,0,1,205.23995971679688,123.01998901367188)"><path transform="matrix(0.017,0,0,-0.017,0,0)" d="M633 671C633 680 627 683 619 683C594 683 533 680 508 680L361 683C352 683 340 683 340 663C340 652 348 652 374 652C397 652 407 652 432 650C456 647 463 644 463 630C463 624 461 617 459 609L344 150C320 53 252 0 200 0C174 0 121 10 105 62C108 61 117 61 117 61C156 61 182 95 182 125C182 157 155 167 138 167C120 167 71 155 71 87C71 25 124 -22 203 -22C295 -22 399 44 424 143L541 610C549 643 551 652 606 652C622 652 633 652 633 671Z" stroke="rgb(0,0,0)" stroke-opacity="1" stroke-width="8" fill="rgb(0,0,0)" fill-opacity="1"></path></g></g><g><g><g><g><g transform="matrix(1,0,0,1,215.18997192382812,126.76998901367188)"><path transform="matrix(0.012,0,0,-0.012,0,0)" d="M449 174L424 174C419 144 412 100 402 85C395 77 329 77 307 77L127 77L233 180C389 318 449 372 449 472C449 586 359 666 237 666C124 666 50 574 50 485C50 429 100 429 103 429C120 429 155 441 155 482C155 508 137 534 102 534C94 534 92 534 89 533C112 598 166 635 224 635C315 635 358 554 358 472C358 392 308 313 253 251L61 37C50 26 50 24 50 0L421 0Z" stroke="rgb(0,0,0)" stroke-opacity="1" stroke-width="8" fill="rgb(0,0,0)" fill-opacity="1"></path></g></g></g></g></g></g></g><g><g><g><g transform="matrix(1,0,0,1,259.2399597167969,124.01998901367188)"><path transform="matrix(0.017,0,0,-0.017,0,0)" d="M633 671C633 680 627 683 619 683C594 683 533 680 508 680L361 683C352 683 340 683 340 663C340 652 348 652 374 652C397 652 407 652 432 650C456 647 463 644 463 630C463 624 461 617 459 609L344 150C320 53 252 0 200 0C174 0 121 10 105 62C108 61 117 61 117 61C156 61 182 95 182 125C182 157 155 167 138 167C120 167 71 155 71 87C71 25 124 -22 203 -22C295 -22 399 44 424 143L541 610C549 643 551 652 606 652C622 652 633 652 633 671Z" stroke="rgb(0,0,0)" stroke-opacity="1" stroke-width="8" fill="rgb(0,0,0)" fill-opacity="1"></path></g></g><g><g><g><g><g transform="matrix(1,0,0,1,269.1899719238281,127.76998901367188)"><path transform="matrix(0.012,0,0,-0.012,0,0)" d="M419 0L419 31L387 31C297 31 294 42 294 79L294 640C294 664 294 666 271 666C209 602 121 602 89 602L89 571C109 571 168 571 220 597L220 79C220 43 217 31 127 31L95 31L95 0C130 3 217 3 257 3C297 3 384 3 419 0Z" stroke="rgb(0,0,0)" stroke-opacity="1" stroke-width="8" fill="rgb(0,0,0)" fill-opacity="1"></path></g></g></g></g></g></g></g><g><g><g><g transform="matrix(1,0,0,1,314.2399597167969,124.01998901367188)"><path transform="matrix(0.017,0,0,-0.017,0,0)" d="M633 671C633 680 627 683 619 683C594 683 533 680 508 680L361 683C352 683 340 683 340 663C340 652 348 652 374 652C397 652 407 652 432 650C456 647 463 644 463 630C463 624 461 617 459 609L344 150C320 53 252 0 200 0C174 0 121 10 105 62C108 61 117 61 117 61C156 61 182 95 182 125C182 157 155 167 138 167C120 167 71 155 71 87C71 25 124 -22 203 -22C295 -22 399 44 424 143L541 610C549 643 551 652 606 652C622 652 633 652 633 671Z" stroke="rgb(0,0,0)" stroke-opacity="1" stroke-width="8" fill="rgb(0,0,0)" fill-opacity="1"></path></g></g><g><g><g><g><g transform="matrix(1,0,0,1,324.1899719238281,127.76998901367188)"><path transform="matrix(0.012,0,0,-0.012,0,0)" d="M449 174L424 174C419 144 412 100 402 85C395 77 329 77 307 77L127 77L233 180C389 318 449 372 449 472C449 586 359 666 237 666C124 666 50 574 50 485C50 429 100 429 103 429C120 429 155 441 155 482C155 508 137 534 102 534C94 534 92 534 89 533C112 598 166 635 224 635C315 635 358 554 358 472C358 392 308 313 253 251L61 37C50 26 50 24 50 0L421 0Z" stroke="rgb(0,0,0)" stroke-opacity="1" stroke-width="8" fill="rgb(0,0,0)" fill-opacity="1"></path></g></g></g></g></g></g></g><g><g><g><g transform="matrix(1,0,0,1,367.2399597167969,123.01998901367188)"><path transform="matrix(0.017,0,0,-0.017,0,0)" d="M633 671C633 680 627 683 619 683C594 683 533 680 508 680L361 683C352 683 340 683 340 663C340 652 348 652 374 652C397 652 407 652 432 650C456 647 463 644 463 630C463 624 461 617 459 609L344 150C320 53 252 0 200 0C174 0 121 10 105 62C108 61 117 61 117 61C156 61 182 95 182 125C182 157 155 167 138 167C120 167 71 155 71 87C71 25 124 -22 203 -22C295 -22 399 44 424 143L541 610C549 643 551 652 606 652C622 652 633 652 633 671Z" stroke="rgb(0,0,0)" stroke-opacity="1" stroke-width="8" fill="rgb(0,0,0)" fill-opacity="1"></path></g></g><g><g><g><g><g transform="matrix(1,0,0,1,377.1899719238281,126.76998901367188)"><path transform="matrix(0.012,0,0,-0.012,0,0)" d="M419 0L419 31L387 31C297 31 294 42 294 79L294 640C294 664 294 666 271 666C209 602 121 602 89 602L89 571C109 571 168 571 220 597L220 79C220 43 217 31 127 31L95 31L95 0C130 3 217 3 257 3C297 3 384 3 419 0Z" stroke="rgb(0,0,0)" stroke-opacity="1" stroke-width="8" fill="rgb(0,0,0)" fill-opacity="1"></path></g></g></g></g></g></g></g><g><g><g><g transform="matrix(1,0,0,1,422.2399597167969,123.01998901367188)"><path transform="matrix(0.017,0,0,-0.017,0,0)" d="M633 671C633 680 627 683 619 683C594 683 533 680 508 680L361 683C352 683 340 683 340 663C340 652 348 652 374 652C397 652 407 652 432 650C456 647 463 644 463 630C463 624 461 617 459 609L344 150C320 53 252 0 200 0C174 0 121 10 105 62C108 61 117 61 117 61C156 61 182 95 182 125C182 157 155 167 138 167C120 167 71 155 71 87C71 25 124 -22 203 -22C295 -22 399 44 424 143L541 610C549 643 551 652 606 652C622 652 633 652 633 671Z" stroke="rgb(0,0,0)" stroke-opacity="1" stroke-width="8" fill="rgb(0,0,0)" fill-opacity="1"></path></g></g><g><g><g><g><g transform="matrix(1,0,0,1,432.1899719238281,126.76998901367188)"><path transform="matrix(0.012,0,0,-0.012,0,0)" d="M449 174L424 174C419 144 412 100 402 85C395 77 329 77 307 77L127 77L233 180C389 318 449 372 449 472C449 586 359 666 237 666C124 666 50 574 50 485C50 429 100 429 103 429C120 429 155 441 155 482C155 508 137 534 102 534C94 534 92 534 89 533C112 598 166 635 224 635C315 635 358 554 358 472C358 392 308 313 253 251L61 37C50 26 50 24 50 0L421 0Z" stroke="rgb(0,0,0)" stroke-opacity="1" stroke-width="8" fill="rgb(0,0,0)" fill-opacity="1"></path></g></g></g></g></g></g></g><g><g><g><g transform="matrix(1,0,0,1,470.2399597167969,123.01998901367188)"><path transform="matrix(0.017,0,0,-0.017,0,0)" d="M633 671C633 680 627 683 619 683C594 683 533 680 508 680L361 683C352 683 340 683 340 663C340 652 348 652 374 652C397 652 407 652 432 650C456 647 463 644 463 630C463 624 461 617 459 609L344 150C320 53 252 0 200 0C174 0 121 10 105 62C108 61 117 61 117 61C156 61 182 95 182 125C182 157 155 167 138 167C120 167 71 155 71 87C71 25 124 -22 203 -22C295 -22 399 44 424 143L541 610C549 643 551 652 606 652C622 652 633 652 633 671Z" stroke="rgb(0,0,0)" stroke-opacity="1" stroke-width="8" fill="rgb(0,0,0)" fill-opacity="1"></path></g></g><g><g><g><g><g transform="matrix(1,0,0,1,480.1899719238281,126.76998901367188)"><path transform="matrix(0.012,0,0,-0.012,0,0)" d="M419 0L419 31L387 31C297 31 294 42 294 79L294 640C294 664 294 666 271 666C209 602 121 602 89 602L89 571C109 571 168 571 220 597L220 79C220 43 217 31 127 31L95 31L95 0C130 3 217 3 257 3C297 3 384 3 419 0Z" stroke="rgb(0,0,0)" stroke-opacity="1" stroke-width="8" fill="rgb(0,0,0)" fill-opacity="1"></path></g></g></g></g></g></g></g><g><g><g><g transform="matrix(1,0,0,1,525.2399597167969,123.01998901367188)"><path transform="matrix(0.017,0,0,-0.017,0,0)" d="M633 671C633 680 627 683 619 683C594 683 533 680 508 680L361 683C352 683 340 683 340 663C340 652 348 652 374 652C397 652 407 652 432 650C456 647 463 644 463 630C463 624 461 617 459 609L344 150C320 53 252 0 200 0C174 0 121 10 105 62C108 61 117 61 117 61C156 61 182 95 182 125C182 157 155 167 138 167C120 167 71 155 71 87C71 25 124 -22 203 -22C295 -22 399 44 424 143L541 610C549 643 551 652 606 652C622 652 633 652 633 671Z" stroke="rgb(0,0,0)" stroke-opacity="1" stroke-width="8" fill="rgb(0,0,0)" fill-opacity="1"></path></g></g><g><g><g><g><g transform="matrix(1,0,0,1,535.1899719238281,126.76998901367188)"><path transform="matrix(0.012,0,0,-0.012,0,0)" d="M449 174L424 174C419 144 412 100 402 85C395 77 329 77 307 77L127 77L233 180C389 318 449 372 449 472C449 586 359 666 237 666C124 666 50 574 50 485C50 429 100 429 103 429C120 429 155 441 155 482C155 508 137 534 102 534C94 534 92 534 89 533C112 598 166 635 224 635C315 635 358 554 358 472C358 392 308 313 253 251L61 37C50 26 50 24 50 0L421 0Z" stroke="rgb(0,0,0)" stroke-opacity="1" stroke-width="8" fill="rgb(0,0,0)" fill-opacity="1"></path></g></g></g></g></g></g></g><g><g><g><g transform="matrix(1,0,0,1,574.2399597167969,123.01998901367188)"><path transform="matrix(0.017,0,0,-0.017,0,0)" d="M633 671C633 680 627 683 619 683C594 683 533 680 508 680L361 683C352 683 340 683 340 663C340 652 348 652 374 652C397 652 407 652 432 650C456 647 463 644 463 630C463 624 461 617 459 609L344 150C320 53 252 0 200 0C174 0 121 10 105 62C108 61 117 61 117 61C156 61 182 95 182 125C182 157 155 167 138 167C120 167 71 155 71 87C71 25 124 -22 203 -22C295 -22 399 44 424 143L541 610C549 643 551 652 606 652C622 652 633 652 633 671Z" stroke="rgb(0,0,0)" stroke-opacity="1" stroke-width="8" fill="rgb(0,0,0)" fill-opacity="1"></path></g></g><g><g><g><g><g transform="matrix(1,0,0,1,584.1899719238281,126.76998901367188)"><path transform="matrix(0.012,0,0,-0.012,0,0)" d="M419 0L419 31L387 31C297 31 294 42 294 79L294 640C294 664 294 666 271 666C209 602 121 602 89 602L89 571C109 571 168 571 220 597L220 79C220 43 217 31 127 31L95 31L95 0C130 3 217 3 257 3C297 3 384 3 419 0Z" stroke="rgb(0,0,0)" stroke-opacity="1" stroke-width="8" fill="rgb(0,0,0)" fill-opacity="1"></path></g></g></g></g></g></g></g><g><g><g><text x="57.239990234375" y="179.57998657226562" style="white-space:pre;stroke:none;fill:rgb(0,0,0);fill-opacity:1;font-size:15px;font-family:Arial, Helvetica, sans-serif;font-weight:400;font-style:normal;dominant-baseline:text-before-edge;text-decoration:none solid rgb(0, 0, 0);">Gapless Topological Edge Mode</text></g></g></g><g><g><g><text x="515.2399597167969" y="9.580001831054688" style="white-space:pre;stroke:none;fill:rgb(0,0,0);fill-opacity:1;font-size:15px;font-family:Arial, Helvetica, sans-serif;font-weight:400;font-style:normal;dominant-baseline:text-before-edge;text-decoration:none solid rgb(0, 0, 0);">No Edge Mode</text></g></g></g></svg>
</svg>
