<svg xmlns="http://www.w3.org/2000/svg" xmlns:xlink="http://www.w3.org/1999/xlink" x="0" y="0" width="778" height="220" style="
        width:778px;
        height:220px;
        background: #FFF;
        fill: none;
">
        <svg xmlns="http://www.w3.org/2000/svg"/>
        
        <svg xmlns="http://www.w3.org/2000/svg" class="role-diagram-draw-area"><g class="shapes-region" style="stroke: black; fill: none;"><g class="arrow-line"><path class="connection real" stroke-dasharray="" d="  M150.65,93.26 L198.65,60.26 M152.35,95.74 L200.35,62.74" style="stroke: rgb(0, 0, 0); stroke-width: 1; fill: none; fill-opacity: 1;"/></g><g class="arrow-line"><path class="connection real" stroke-dasharray="" d="  M199.5,61.5 L243.5,91.5" style="stroke: rgb(0, 0, 0); stroke-width: 1; fill: none; fill-opacity: 1;"/></g><g class="composite-shape"><path class="real" d=" M191,61.5 C191,56.81 194.81,53 199.5,53 C204.19,53 208,56.81 208,61.5 C208,66.19 204.19,70 199.5,70 C194.81,70 191,66.19 191,61.5 Z" style="stroke-width: 1; stroke: rgb(0, 0, 0); fill: rgb(0, 0, 0); fill-opacity: 1;"/></g><g class="composite-shape"><path class="real" d=" M235,91.5 C235,86.81 238.81,83 243.5,83 C248.19,83 252,86.81 252,91.5 C252,96.19 248.19,100 243.5,100 C238.81,100 235,96.19 235,91.5 Z" style="stroke-width: 1; stroke: rgb(0, 0, 0); fill: rgb(0, 0, 0); fill-opacity: 1;"/></g><g class="arrow-line"><path class="connection real" stroke-dasharray="" d="  M242.65,90.26 L290.65,57.26 M244.35,92.74 L292.35,59.74" style="stroke: rgb(0, 0, 0); stroke-width: 1; fill: none; fill-opacity: 1;"/></g><g class="arrow-line"><path class="connection real" stroke-dasharray="" d="  M291.5,58.5 L335.5,88.5" style="stroke: rgb(0, 0, 0); stroke-width: 1; fill: none; fill-opacity: 1;"/></g><g class="composite-shape"><path class="real" d=" M283,58.5 C283,53.81 286.81,50 291.5,50 C296.19,50 300,53.81 300,58.5 C300,63.19 296.19,67 291.5,67 C286.81,67 283,63.19 283,58.5 Z" style="stroke-width: 1; stroke: rgb(0, 0, 0); fill: rgb(0, 0, 0); fill-opacity: 1;"/></g><g class="composite-shape"><path class="real" d=" M327,88.5 C327,83.81 330.81,80 335.5,80 C340.19,80 344,83.81 344,88.5 C344,93.19 340.19,97 335.5,97 C330.81,97 327,93.19 327,88.5 Z" style="stroke-width: 1; stroke: rgb(0, 0, 0); fill: rgb(0, 0, 0); fill-opacity: 1;"/></g><g class="arrow-line"><path class="connection real" stroke-dasharray="" d="  M334.65,87.26 L382.65,54.26 M336.35,89.74 L384.35,56.74" style="stroke: rgb(0, 0, 0); stroke-width: 1; fill: none; fill-opacity: 1;"/></g><g class="arrow-line"><path class="connection real" stroke-dasharray="" d="  M383.5,55.5 L427.5,85.5" style="stroke: rgb(0, 0, 0); stroke-width: 1; fill: none; fill-opacity: 1;"/></g><g class="composite-shape"><path class="real" d=" M375,55.5 C375,50.81 378.81,47 383.5,47 C388.19,47 392,50.81 392,55.5 C392,60.19 388.19,64 383.5,64 C378.81,64 375,60.19 375,55.5 Z" style="stroke-width: 1; stroke: rgb(0, 0, 0); fill: rgb(0, 0, 0); fill-opacity: 1;"/></g><g class="composite-shape"><path class="real" d=" M419,85.5 C419,80.81 422.81,77 427.5,77 C432.19,77 436,80.81 436,85.5 C436,90.19 432.19,94 427.5,94 C422.81,94 419,90.19 419,85.5 Z" style="stroke-width: 1; stroke: rgb(0, 0, 0); fill: rgb(0, 0, 0); fill-opacity: 1;"/></g><g class="arrow-line"><path class="connection real" stroke-dasharray="" d="  M427.15,85.26 L475.15,52.26 M428.85,87.74 L476.85,54.74" style="stroke: rgb(0, 0, 0); stroke-width: 1; fill: none; fill-opacity: 1;"/></g><g class="arrow-line"><path class="connection real" stroke-dasharray="" d="  M476,53.5 L520,83.5" style="stroke: rgb(0, 0, 0); stroke-width: 1; fill: none; fill-opacity: 1;"/></g><g class="composite-shape"><path class="real" d=" M467.5,53.5 C467.5,48.81 471.31,45 476,45 C480.69,45 484.5,48.81 484.5,53.5 C484.5,58.19 480.69,62 476,62 C471.31,62 467.5,58.19 467.5,53.5 Z" style="stroke-width: 1; stroke: rgb(0, 0, 0); fill: rgb(0, 0, 0); fill-opacity: 1;"/></g><g class="composite-shape"><path class="real" d=" M511.5,83.5 C511.5,78.81 515.31,75 520,75 C524.69,75 528.5,78.81 528.5,83.5 C528.5,88.19 524.69,92 520,92 C515.31,92 511.5,88.19 511.5,83.5 Z" style="stroke-width: 1; stroke: rgb(0, 0, 0); fill: rgb(0, 0, 0); fill-opacity: 1;"/></g><g class="arrow-line"><path class="connection real" stroke-dasharray="" d="  M519.15,82.26 L567.15,49.26 M520.85,84.74 L568.85,51.74" style="stroke: rgb(0, 0, 0); stroke-width: 1; fill: none; fill-opacity: 1;"/></g><g class="arrow-line"><path class="connection real" stroke-dasharray="" d="  M568,50.5 L612,80.5" style="stroke: rgb(0, 0, 0); stroke-width: 1; fill: none; fill-opacity: 1;"/></g><g class="composite-shape"><path class="real" d=" M559.5,50.5 C559.5,45.81 563.31,42 568,42 C572.69,42 576.5,45.81 576.5,50.5 C576.5,55.19 572.69,59 568,59 C563.31,59 559.5,55.19 559.5,50.5 Z" style="stroke-width: 1; stroke: rgb(0, 0, 0); fill: rgb(0, 0, 0); fill-opacity: 1;"/></g><g class="composite-shape"><path class="real" d=" M603.5,80.5 C603.5,75.81 607.31,72 612,72 C616.69,72 620.5,75.81 620.5,80.5 C620.5,85.19 616.69,89 612,89 C607.31,89 603.5,85.19 603.5,80.5 Z" style="stroke-width: 1; stroke: rgb(0, 0, 0); fill: rgb(0, 0, 0); fill-opacity: 1;"/></g><g class="arrow-line"><path class="connection real" stroke-dasharray="" d="  M199.5,29.48 L199.5,61.5" style="stroke: rgb(0, 0, 0); stroke-width: 1; fill: none; fill-opacity: 1;"/></g><g class="composite-shape"><path class="real" d=" M193.61,23.59 C193.61,20.33 196.25,17.69 199.5,17.69 C202.75,17.69 205.39,20.33 205.39,23.59 C205.39,26.84 202.75,29.48 199.5,29.48 C196.25,29.48 193.61,26.84 193.61,23.59 Z" style="stroke-width: 1; stroke: rgb(0, 0, 0); fill: none; fill-opacity: 1;"/></g><g class="arrow-line"><path class="connection real" stroke-dasharray="" d="  M291.5,26.48 L291.5,58.5" style="stroke: rgb(0, 0, 0); stroke-width: 1; fill: none; fill-opacity: 1;"/></g><g class="composite-shape"><path class="real" d=" M285.61,20.59 C285.61,17.33 288.25,14.69 291.5,14.69 C294.75,14.69 297.39,17.33 297.39,20.59 C297.39,23.84 294.75,26.48 291.5,26.48 C288.25,26.48 285.61,23.84 285.61,20.59 Z" style="stroke-width: 1; stroke: rgb(0, 0, 0); fill: none; fill-opacity: 1;"/></g><g class="arrow-line"><path class="connection real" stroke-dasharray="" d="  M383.5,23.48 L383.5,55.5" style="stroke: rgb(0, 0, 0); stroke-width: 1; fill: none; fill-opacity: 1;"/></g><g class="composite-shape"><path class="real" d=" M377.61,17.59 C377.61,14.33 380.25,11.69 383.5,11.69 C386.75,11.69 389.39,14.33 389.39,17.59 C389.39,20.84 386.75,23.48 383.5,23.48 C380.25,23.48 377.61,20.84 377.61,17.59 Z" style="stroke-width: 1; stroke: rgb(0, 0, 0); fill: none; fill-opacity: 1;"/></g><g class="arrow-line"><path class="connection real" stroke-dasharray="" d="  M476,21.48 L476,53.5" style="stroke: rgb(0, 0, 0); stroke-width: 1; fill: none; fill-opacity: 1;"/></g><g class="composite-shape"><path class="real" d=" M470.11,15.59 C470.11,12.33 472.75,9.69 476,9.69 C479.25,9.69 481.89,12.33 481.89,15.59 C481.89,18.84 479.25,21.48 476,21.48 C472.75,21.48 470.11,18.84 470.11,15.59 Z" style="stroke-width: 1; stroke: rgb(0, 0, 0); fill: none; fill-opacity: 1;"/></g><g class="arrow-line"><path class="connection real" stroke-dasharray="" d="  M568,18.48 L568,50.5" style="stroke: rgb(0, 0, 0); stroke-width: 1; fill: none; fill-opacity: 1;"/></g><g class="composite-shape"><path class="real" d=" M562.11,12.59 C562.11,9.33 564.75,6.69 568,6.69 C571.25,6.69 573.89,9.33 573.89,12.59 C573.89,15.84 571.25,18.48 568,18.48 C564.75,18.48 562.11,15.84 562.11,12.59 Z" style="stroke-width: 1; stroke: rgb(0, 0, 0); fill: none; fill-opacity: 1;"/></g><g class="arrow-line"><path class="connection real" stroke-dasharray="" d="  M243.5,91.5 L243.5,123.52" style="stroke: rgb(0, 0, 0); stroke-width: 1; fill: none; fill-opacity: 1;"/></g><g class="composite-shape"><path class="real" d=" M237.61,129.41 C237.61,126.16 240.25,123.52 243.5,123.52 C246.75,123.52 249.39,126.16 249.39,129.41 C249.39,132.67 246.75,135.31 243.5,135.31 C240.25,135.31 237.61,132.67 237.61,129.41 Z" style="stroke-width: 1; stroke: rgb(0, 0, 0); fill: none; fill-opacity: 1;"/></g><g class="arrow-line"><path class="connection real" stroke-dasharray="" d="  M335.5,88.5 L335.5,120.52" style="stroke: rgb(0, 0, 0); stroke-width: 1; fill: none; fill-opacity: 1;"/></g><g class="composite-shape"><path class="real" d=" M329.61,126.41 C329.61,123.16 332.25,120.52 335.5,120.52 C338.75,120.52 341.39,123.16 341.39,126.41 C341.39,129.67 338.75,132.31 335.5,132.31 C332.25,132.31 329.61,129.67 329.61,126.41 Z" style="stroke-width: 1; stroke: rgb(0, 0, 0); fill: none; fill-opacity: 1;"/></g><g class="arrow-line"><path class="connection real" stroke-dasharray="" d="  M428,86.5 L428,118.52" style="stroke: rgb(0, 0, 0); stroke-width: 1; fill: none; fill-opacity: 1;"/></g><g class="composite-shape"><path class="real" d=" M422.11,124.41 C422.11,121.16 424.75,118.52 428,118.52 C431.25,118.52 433.89,121.16 433.89,124.41 C433.89,127.67 431.25,130.31 428,130.31 C424.75,130.31 422.11,127.67 422.11,124.41 Z" style="stroke-width: 1; stroke: rgb(0, 0, 0); fill: none; fill-opacity: 1;"/></g><g class="arrow-line"><path class="connection real" stroke-dasharray="" d="  M520,83.5 L520,115.52" style="stroke: rgb(0, 0, 0); stroke-width: 1; fill: none; fill-opacity: 1;"/></g><g class="composite-shape"><path class="real" d=" M514.11,121.41 C514.11,118.16 516.75,115.52 520,115.52 C523.25,115.52 525.89,118.16 525.89,121.41 C525.89,124.67 523.25,127.31 520,127.31 C516.75,127.31 514.11,124.67 514.11,121.41 Z" style="stroke-width: 1; stroke: rgb(0, 0, 0); fill: none; fill-opacity: 1;"/></g><g class="arrow-line"><path class="connection real" stroke-dasharray="" d="  M612,80.5 L612,112.52" style="stroke: rgb(0, 0, 0); stroke-width: 1; fill: none; fill-opacity: 1;"/></g><g class="composite-shape"><path class="real" d=" M606.11,118.41 C606.11,115.16 608.75,112.52 612,112.52 C615.25,112.52 617.89,115.16 617.89,118.41 C617.89,121.67 615.25,124.31 612,124.31 C608.75,124.31 606.11,121.67 606.11,118.41 Z" style="stroke-width: 1; stroke: rgb(0, 0, 0); fill: none; fill-opacity: 1;"/></g><g class="arrow-line"><path class="connection real" stroke-dasharray="" d="  M611.15,79.26 L659.15,46.26 M612.85,81.74 L660.85,48.74" style="stroke: rgb(0, 0, 0); stroke-width: 1; fill: none; fill-opacity: 1;"/></g><g class="composite-shape"><path class="real" d=" M148,198.5 C148,193.81 151.81,190 156.5,190 C161.19,190 165,193.81 165,198.5 C165,203.19 161.19,207 156.5,207 C151.81,207 148,203.19 148,198.5 Z" style="stroke-width: 1; stroke: none; stroke-opacity: 1; fill: rgb(255, 0, 0); fill-opacity: 1;"/></g><g class="composite-shape"><path class="real" d=" M198,198.5 C198,193.81 201.81,190 206.5,190 C211.19,190 215,193.81 215,198.5 C215,203.19 211.19,207 206.5,207 C201.81,207 198,203.19 198,198.5 Z" style="stroke-width: 1; stroke: none; stroke-opacity: 1; fill: rgb(74, 144, 226); fill-opacity: 1;"/></g><g class="arrow-line"><path class="connection real" stroke-dasharray="" d="  M165,198.5 L198,198.5" style="stroke: rgb(0, 0, 0); stroke-width: 4; fill: none; fill-opacity: 1;"/></g><g class="arrow-line"><path class="connection real" stroke-dasharray="" d="  M215,198.5 L261.79,198.5" style="stroke: rgb(0, 0, 0); stroke-width: 2; fill: none; fill-opacity: 1;"/></g><g class="composite-shape"><path class="real" d=" M261.79,198.5 C261.79,193.81 265.59,190 270.29,190 C274.98,190 278.79,193.81 278.79,198.5 C278.79,203.19 274.98,207 270.29,207 C265.59,207 261.79,203.19 261.79,198.5 Z" style="stroke-width: 1; stroke: none; stroke-opacity: 1; fill: rgb(255, 0, 0); fill-opacity: 1;"/></g><g class="composite-shape"><path class="real" d=" M311.79,198.5 C311.79,193.81 315.59,190 320.29,190 C324.98,190 328.79,193.81 328.79,198.5 C328.79,203.19 324.98,207 320.29,207 C315.59,207 311.79,203.19 311.79,198.5 Z" style="stroke-width: 1; stroke: none; stroke-opacity: 1; fill: rgb(74, 144, 226); fill-opacity: 1;"/></g><g class="arrow-line"><path class="connection real" stroke-dasharray="" d="  M278.79,198.5 L311.79,198.5" style="stroke: rgb(0, 0, 0); stroke-width: 4; fill: none; fill-opacity: 1;"/></g><g class="arrow-line"><path class="connection real" stroke-dasharray="" d="  M328.79,198.5 L375.57,198.5" style="stroke: rgb(0, 0, 0); stroke-width: 2; fill: none; fill-opacity: 1;"/></g><g class="composite-shape"><path class="real" d=" M367.07,198.5 C367.07,193.81 370.88,190 375.57,190 C380.27,190 384.07,193.81 384.07,198.5 C384.07,203.19 380.27,207 375.57,207 C370.88,207 367.07,203.19 367.07,198.5 Z" style="stroke-width: 1; stroke: none; stroke-opacity: 1; fill: rgb(255, 0, 0); fill-opacity: 1;"/></g><g class="composite-shape"><path class="real" d=" M417.07,198.5 C417.07,193.81 420.88,190 425.57,190 C430.27,190 434.07,193.81 434.07,198.5 C434.07,203.19 430.27,207 425.57,207 C420.88,207 417.07,203.19 417.07,198.5 Z" style="stroke-width: 1; stroke: none; stroke-opacity: 1; fill: rgb(74, 144, 226); fill-opacity: 1;"/></g><g class="arrow-line"><path class="connection real" stroke-dasharray="" d="  M384.07,198.5 L417.07,198.5" style="stroke: rgb(0, 0, 0); stroke-width: 4; fill: none; fill-opacity: 1;"/></g><g class="arrow-line"><path class="connection real" stroke-dasharray="" d="  M433.79,198.5 L480.57,198.5" style="stroke: rgb(0, 0, 0); stroke-width: 2; fill: none; fill-opacity: 1;"/></g><g class="composite-shape"><path class="real" d=" M472.07,198.5 C472.07,193.81 475.88,190 480.57,190 C485.27,190 489.07,193.81 489.07,198.5 C489.07,203.19 485.27,207 480.57,207 C475.88,207 472.07,203.19 472.07,198.5 Z" style="stroke-width: 1; stroke: none; stroke-opacity: 1; fill: rgb(255, 0, 0); fill-opacity: 1;"/></g><g class="composite-shape"><path class="real" d=" M522.07,198.5 C522.07,193.81 525.88,190 530.57,190 C535.27,190 539.07,193.81 539.07,198.5 C539.07,203.19 535.27,207 530.57,207 C525.88,207 522.07,203.19 522.07,198.5 Z" style="stroke-width: 1; stroke: none; stroke-opacity: 1; fill: rgb(74, 144, 226); fill-opacity: 1;"/></g><g class="arrow-line"><path class="connection real" stroke-dasharray="" d="  M489.07,198.5 L522.07,198.5" style="stroke: rgb(0, 0, 0); stroke-width: 4; fill: none; fill-opacity: 1;"/></g><g class="arrow-line"><path class="connection real" stroke-dasharray="" d="  M537.79,198.5 L584.57,198.5" style="stroke: rgb(0, 0, 0); stroke-width: 2; fill: none; fill-opacity: 1;"/></g><g class="composite-shape"><path class="real" d=" M576.07,198.5 C576.07,193.81 579.88,190 584.57,190 C589.27,190 593.07,193.81 593.07,198.5 C593.07,203.19 589.27,207 584.57,207 C579.88,207 576.07,203.19 576.07,198.5 Z" style="stroke-width: 1; stroke: none; stroke-opacity: 1; fill: rgb(255, 0, 0); fill-opacity: 1;"/></g><g class="composite-shape"><path class="real" d=" M626.07,198.5 C626.07,193.81 629.88,190 634.57,190 C639.27,190 643.07,193.81 643.07,198.5 C643.07,203.19 639.27,207 634.57,207 C629.88,207 626.07,203.19 626.07,198.5 Z" style="stroke-width: 1; stroke: none; stroke-opacity: 1; fill: rgb(74, 144, 226); fill-opacity: 1;"/></g><g class="arrow-line"><path class="connection real" stroke-dasharray="" d="  M593.07,198.5 L626.07,198.5" style="stroke: rgb(0, 0, 0); stroke-width: 4; fill: none; fill-opacity: 1;"/></g><g class="arrow-line"><path class="connection real" stroke-dasharray="" d="  M126.79,198.5 L148,198.5" style="stroke: rgb(0, 0, 0); stroke-width: 2; fill: none; fill-opacity: 1;"/></g><g class="arrow-line"><path class="connection real" stroke-dasharray="" d="  M643.07,198.5 L659.79,198.5" style="stroke: rgb(0, 0, 0); stroke-width: 2; fill: none; fill-opacity: 1;"/></g><g/></g><g/><g/><g/></svg>
        <svg xmlns="http://www.w3.org/2000/svg" xmlns:xlink="http://www.w3.org/1999/xlink" width="776" height="218" style="width:776px;height:218px;font-family:Asana-Math, Asana;background:#FFF;"><g><g><g><g transform="matrix(1,0,0,1,118,78.63998413085938)"><path transform="matrix(0.015,0,0,-0.015,0,0)" d="M96 0L180 0L180 84L96 84ZM374 0L458 0L458 84L374 84ZM652 0L736 0L736 84L652 84ZM930 0L1014 0L1014 84L930 84ZM1208 0L1292 0L1292 84L1208 84ZM1486 0L1570 0L1570 84L1486 84Z" stroke="rgb(0,0,0)" stroke-opacity="1" stroke-width="8" fill="rgb(0,0,0)" fill-opacity="1"></path></g></g></g></g><g><g><g><g transform="matrix(1,0,0,1,668,62.63999938964844)"><path transform="matrix(0.015,0,0,-0.015,0,0)" d="M96 0L180 0L180 84L96 84ZM374 0L458 0L458 84L374 84ZM652 0L736 0L736 84L652 84ZM930 0L1014 0L1014 84L930 84ZM1208 0L1292 0L1292 84L1208 84ZM1486 0L1570 0L1570 84L1486 84Z" stroke="rgb(0,0,0)" stroke-opacity="1" stroke-width="8" fill="rgb(0,0,0)" fill-opacity="1"></path></g></g></g></g><g><g><g><g transform="matrix(1,0,0,1,152,201)"><path transform="matrix(0.012,0,0,-0.012,0,0)" d="M27 0L102 0L178 204L468 204L545 0L637 0L377 694L288 694ZM199 260C278 476 315 587 323 624C329 587 356 512 447 260Z" stroke="rgb(255,255,255)" stroke-opacity="1" stroke-width="8" fill="rgb(255,255,255)" fill-opacity="1"></path></g></g></g></g><g><g><g><g transform="matrix(1,0,0,1,203,201.989990234375)"><path transform="matrix(0.012,0,0,-0.012,0,0)" d="M96 0L344 0C361 0 378 0 395 2C509 13 610 88 610 188C610 282 514 347 414 363C529 392 582 457 582 520C582 590 512 694 318 694L96 694ZM180 56L180 293L181 330L300 330C317 330 334 331 351 329C445 320 528 264 528 189C528 136 473 56 322 56ZM180 392L180 603L181 638L295 638C449 638 503 567 503 519C503 459 433 392 300 392Z" stroke="rgb(255,255,255)" stroke-opacity="1" stroke-width="8" fill="rgb(255,255,255)" fill-opacity="1"></path></g></g></g></g><g><g><g><g transform="matrix(1,0,0,1,266,200.989990234375)"><path transform="matrix(0.012,0,0,-0.012,0,0)" d="M27 0L102 0L178 204L468 204L545 0L637 0L377 694L288 694ZM199 260C278 476 315 587 323 624C329 587 356 512 447 260Z" stroke="rgb(255,255,255)" stroke-opacity="1" stroke-width="8" fill="rgb(255,255,255)" fill-opacity="1"></path></g></g></g></g><g><g><g><g transform="matrix(1,0,0,1,317,201.989990234375)"><path transform="matrix(0.012,0,0,-0.012,0,0)" d="M96 0L344 0C361 0 378 0 395 2C509 13 610 88 610 188C610 282 514 347 414 363C529 392 582 457 582 520C582 590 512 694 318 694L96 694ZM180 56L180 293L181 330L300 330C317 330 334 331 351 329C445 320 528 264 528 189C528 136 473 56 322 56ZM180 392L180 603L181 638L295 638C449 638 503 567 503 519C503 459 433 392 300 392Z" stroke="rgb(255,255,255)" stroke-opacity="1" stroke-width="8" fill="rgb(255,255,255)" fill-opacity="1"></path></g></g></g></g><g><g><g><g transform="matrix(1,0,0,1,371,200.989990234375)"><path transform="matrix(0.012,0,0,-0.012,0,0)" d="M27 0L102 0L178 204L468 204L545 0L637 0L377 694L288 694ZM199 260C278 476 315 587 323 624C329 587 356 512 447 260Z" stroke="rgb(255,255,255)" stroke-opacity="1" stroke-width="8" fill="rgb(255,255,255)" fill-opacity="1"></path></g></g></g></g><g><g><g><g transform="matrix(1,0,0,1,422,201.989990234375)"><path transform="matrix(0.012,0,0,-0.012,0,0)" d="M96 0L344 0C361 0 378 0 395 2C509 13 610 88 610 188C610 282 514 347 414 363C529 392 582 457 582 520C582 590 512 694 318 694L96 694ZM180 56L180 293L181 330L300 330C317 330 334 331 351 329C445 320 528 264 528 189C528 136 473 56 322 56ZM180 392L180 603L181 638L295 638C449 638 503 567 503 519C503 459 433 392 300 392Z" stroke="rgb(255,255,255)" stroke-opacity="1" stroke-width="8" fill="rgb(255,255,255)" fill-opacity="1"></path></g></g></g></g><g><g><g><g transform="matrix(1,0,0,1,476,200.989990234375)"><path transform="matrix(0.012,0,0,-0.012,0,0)" d="M27 0L102 0L178 204L468 204L545 0L637 0L377 694L288 694ZM199 260C278 476 315 587 323 624C329 587 356 512 447 260Z" stroke="rgb(255,255,255)" stroke-opacity="1" stroke-width="8" fill="rgb(255,255,255)" fill-opacity="1"></path></g></g></g></g><g><g><g><g transform="matrix(1,0,0,1,527,201.989990234375)"><path transform="matrix(0.012,0,0,-0.012,0,0)" d="M96 0L344 0C361 0 378 0 395 2C509 13 610 88 610 188C610 282 514 347 414 363C529 392 582 457 582 520C582 590 512 694 318 694L96 694ZM180 56L180 293L181 330L300 330C317 330 334 331 351 329C445 320 528 264 528 189C528 136 473 56 322 56ZM180 392L180 603L181 638L295 638C449 638 503 567 503 519C503 459 433 392 300 392Z" stroke="rgb(255,255,255)" stroke-opacity="1" stroke-width="8" fill="rgb(255,255,255)" fill-opacity="1"></path></g></g></g></g><g><g><g><g transform="matrix(1,0,0,1,580,200.989990234375)"><path transform="matrix(0.012,0,0,-0.012,0,0)" d="M27 0L102 0L178 204L468 204L545 0L637 0L377 694L288 694ZM199 260C278 476 315 587 323 624C329 587 356 512 447 260Z" stroke="rgb(255,255,255)" stroke-opacity="1" stroke-width="8" fill="rgb(255,255,255)" fill-opacity="1"></path></g></g></g></g><g><g><g><g transform="matrix(1,0,0,1,631,201.989990234375)"><path transform="matrix(0.012,0,0,-0.012,0,0)" d="M96 0L344 0C361 0 378 0 395 2C509 13 610 88 610 188C610 282 514 347 414 363C529 392 582 457 582 520C582 590 512 694 318 694L96 694ZM180 56L180 293L181 330L300 330C317 330 334 331 351 329C445 320 528 264 528 189C528 136 473 56 322 56ZM180 392L180 603L181 638L295 638C449 638 503 567 503 519C503 459 433 392 300 392Z" stroke="rgb(255,255,255)" stroke-opacity="1" stroke-width="8" fill="rgb(255,255,255)" fill-opacity="1"></path></g></g></g></g><g><g><g><g transform="matrix(1,0,0,1,174,183.72000122070312)"><path transform="matrix(0.015,0,0,-0.015,0,0)" d="M355 664L358 692L244 689C228 689 210 689 167 690L103 692L100 664L147 662C171 661 182 653 182 635C182 630 182 627 181 622L86 -21C71 -124 41 -174 -6 -174C-18 -174 -27 -173 -35 -170L-32 -196C-21 -203 -9 -206 3 -206C38 -206 143 -178 177 54L262 613C268 651 275 658 313 661Z" stroke="rgb(0,0,0)" stroke-opacity="1" stroke-width="8" fill="rgb(0,0,0)" fill-opacity="1"></path></g></g><g><g><g><g><g transform="matrix(1,0,0,1,179.42999267578125,189.14999389648438)"><path transform="matrix(0.012,0,0,-0.012,0,0)" d="M418 -3L418 27L366 30C311 33 301 44 301 96L301 700L60 598L67 548L217 614L217 96C217 44 206 33 152 30L96 27L96 -3C250 0 250 0 261 0C292 0 402 -3 418 -3Z" stroke="rgb(0,0,0)" stroke-opacity="1" stroke-width="8" fill="rgb(0,0,0)" fill-opacity="1"></path></g></g></g></g></g></g></g><g><g><g><g transform="matrix(1,0,0,1,234,183.72000122070312)"><path transform="matrix(0.015,0,0,-0.015,0,0)" d="M355 664L358 692L244 689C228 689 210 689 167 690L103 692L100 664L147 662C171 661 182 653 182 635C182 630 182 627 181 622L86 -21C71 -124 41 -174 -6 -174C-18 -174 -27 -173 -35 -170L-32 -196C-21 -203 -9 -206 3 -206C38 -206 143 -178 177 54L262 613C268 651 275 658 313 661Z" stroke="rgb(0,0,0)" stroke-opacity="1" stroke-width="8" fill="rgb(0,0,0)" fill-opacity="1"></path></g></g><g><g><g><g><g transform="matrix(1,0,0,1,239.42999267578125,189.14999389648438)"><path transform="matrix(0.012,0,0,-0.012,0,0)" d="M16 23L16 -3C203 -3 203 0 239 0C275 0 275 -3 468 -3L468 82C353 77 307 81 122 77L304 270C401 373 431 428 431 503C431 618 353 689 226 689C154 689 105 669 56 619L39 483L68 483L81 529C97 587 133 612 200 612C286 612 341 558 341 473C341 398 299 324 186 204Z" stroke="rgb(0,0,0)" stroke-opacity="1" stroke-width="8" fill="rgb(0,0,0)" fill-opacity="1"></path></g></g></g></g></g></g></g><g><g><g><g transform="matrix(1,0,0,1,288,184.72000122070312)"><path transform="matrix(0.015,0,0,-0.015,0,0)" d="M355 664L358 692L244 689C228 689 210 689 167 690L103 692L100 664L147 662C171 661 182 653 182 635C182 630 182 627 181 622L86 -21C71 -124 41 -174 -6 -174C-18 -174 -27 -173 -35 -170L-32 -196C-21 -203 -9 -206 3 -206C38 -206 143 -178 177 54L262 613C268 651 275 658 313 661Z" stroke="rgb(0,0,0)" stroke-opacity="1" stroke-width="8" fill="rgb(0,0,0)" fill-opacity="1"></path></g></g><g><g><g><g><g transform="matrix(1,0,0,1,293.42999267578125,190.14999389648438)"><path transform="matrix(0.012,0,0,-0.012,0,0)" d="M418 -3L418 27L366 30C311 33 301 44 301 96L301 700L60 598L67 548L217 614L217 96C217 44 206 33 152 30L96 27L96 -3C250 0 250 0 261 0C292 0 402 -3 418 -3Z" stroke="rgb(0,0,0)" stroke-opacity="1" stroke-width="8" fill="rgb(0,0,0)" fill-opacity="1"></path></g></g></g></g></g></g></g><g><g><g><g transform="matrix(1,0,0,1,343,184.72000122070312)"><path transform="matrix(0.015,0,0,-0.015,0,0)" d="M355 664L358 692L244 689C228 689 210 689 167 690L103 692L100 664L147 662C171 661 182 653 182 635C182 630 182 627 181 622L86 -21C71 -124 41 -174 -6 -174C-18 -174 -27 -173 -35 -170L-32 -196C-21 -203 -9 -206 3 -206C38 -206 143 -178 177 54L262 613C268 651 275 658 313 661Z" stroke="rgb(0,0,0)" stroke-opacity="1" stroke-width="8" fill="rgb(0,0,0)" fill-opacity="1"></path></g></g><g><g><g><g><g transform="matrix(1,0,0,1,348.42999267578125,190.14999389648438)"><path transform="matrix(0.012,0,0,-0.012,0,0)" d="M16 23L16 -3C203 -3 203 0 239 0C275 0 275 -3 468 -3L468 82C353 77 307 81 122 77L304 270C401 373 431 428 431 503C431 618 353 689 226 689C154 689 105 669 56 619L39 483L68 483L81 529C97 587 133 612 200 612C286 612 341 558 341 473C341 398 299 324 186 204Z" stroke="rgb(0,0,0)" stroke-opacity="1" stroke-width="8" fill="rgb(0,0,0)" fill-opacity="1"></path></g></g></g></g></g></g></g><g><g><g><g transform="matrix(1,0,0,1,396,183.72000122070312)"><path transform="matrix(0.015,0,0,-0.015,0,0)" d="M355 664L358 692L244 689C228 689 210 689 167 690L103 692L100 664L147 662C171 661 182 653 182 635C182 630 182 627 181 622L86 -21C71 -124 41 -174 -6 -174C-18 -174 -27 -173 -35 -170L-32 -196C-21 -203 -9 -206 3 -206C38 -206 143 -178 177 54L262 613C268 651 275 658 313 661Z" stroke="rgb(0,0,0)" stroke-opacity="1" stroke-width="8" fill="rgb(0,0,0)" fill-opacity="1"></path></g></g><g><g><g><g><g transform="matrix(1,0,0,1,401.42999267578125,189.14999389648438)"><path transform="matrix(0.012,0,0,-0.012,0,0)" d="M418 -3L418 27L366 30C311 33 301 44 301 96L301 700L60 598L67 548L217 614L217 96C217 44 206 33 152 30L96 27L96 -3C250 0 250 0 261 0C292 0 402 -3 418 -3Z" stroke="rgb(0,0,0)" stroke-opacity="1" stroke-width="8" fill="rgb(0,0,0)" fill-opacity="1"></path></g></g></g></g></g></g></g><g><g><g><g transform="matrix(1,0,0,1,451,183.72000122070312)"><path transform="matrix(0.015,0,0,-0.015,0,0)" d="M355 664L358 692L244 689C228 689 210 689 167 690L103 692L100 664L147 662C171 661 182 653 182 635C182 630 182 627 181 622L86 -21C71 -124 41 -174 -6 -174C-18 -174 -27 -173 -35 -170L-32 -196C-21 -203 -9 -206 3 -206C38 -206 143 -178 177 54L262 613C268 651 275 658 313 661Z" stroke="rgb(0,0,0)" stroke-opacity="1" stroke-width="8" fill="rgb(0,0,0)" fill-opacity="1"></path></g></g><g><g><g><g><g transform="matrix(1,0,0,1,456.42999267578125,189.14999389648438)"><path transform="matrix(0.012,0,0,-0.012,0,0)" d="M16 23L16 -3C203 -3 203 0 239 0C275 0 275 -3 468 -3L468 82C353 77 307 81 122 77L304 270C401 373 431 428 431 503C431 618 353 689 226 689C154 689 105 669 56 619L39 483L68 483L81 529C97 587 133 612 200 612C286 612 341 558 341 473C341 398 299 324 186 204Z" stroke="rgb(0,0,0)" stroke-opacity="1" stroke-width="8" fill="rgb(0,0,0)" fill-opacity="1"></path></g></g></g></g></g></g></g><g><g><g><g transform="matrix(1,0,0,1,499,183.72000122070312)"><path transform="matrix(0.015,0,0,-0.015,0,0)" d="M355 664L358 692L244 689C228 689 210 689 167 690L103 692L100 664L147 662C171 661 182 653 182 635C182 630 182 627 181 622L86 -21C71 -124 41 -174 -6 -174C-18 -174 -27 -173 -35 -170L-32 -196C-21 -203 -9 -206 3 -206C38 -206 143 -178 177 54L262 613C268 651 275 658 313 661Z" stroke="rgb(0,0,0)" stroke-opacity="1" stroke-width="8" fill="rgb(0,0,0)" fill-opacity="1"></path></g></g><g><g><g><g><g transform="matrix(1,0,0,1,504.42999267578125,189.14999389648438)"><path transform="matrix(0.012,0,0,-0.012,0,0)" d="M418 -3L418 27L366 30C311 33 301 44 301 96L301 700L60 598L67 548L217 614L217 96C217 44 206 33 152 30L96 27L96 -3C250 0 250 0 261 0C292 0 402 -3 418 -3Z" stroke="rgb(0,0,0)" stroke-opacity="1" stroke-width="8" fill="rgb(0,0,0)" fill-opacity="1"></path></g></g></g></g></g></g></g><g><g><g><g transform="matrix(1,0,0,1,554,183.72000122070312)"><path transform="matrix(0.015,0,0,-0.015,0,0)" d="M355 664L358 692L244 689C228 689 210 689 167 690L103 692L100 664L147 662C171 661 182 653 182 635C182 630 182 627 181 622L86 -21C71 -124 41 -174 -6 -174C-18 -174 -27 -173 -35 -170L-32 -196C-21 -203 -9 -206 3 -206C38 -206 143 -178 177 54L262 613C268 651 275 658 313 661Z" stroke="rgb(0,0,0)" stroke-opacity="1" stroke-width="8" fill="rgb(0,0,0)" fill-opacity="1"></path></g></g><g><g><g><g><g transform="matrix(1,0,0,1,559.4299926757812,189.14999389648438)"><path transform="matrix(0.012,0,0,-0.012,0,0)" d="M16 23L16 -3C203 -3 203 0 239 0C275 0 275 -3 468 -3L468 82C353 77 307 81 122 77L304 270C401 373 431 428 431 503C431 618 353 689 226 689C154 689 105 669 56 619L39 483L68 483L81 529C97 587 133 612 200 612C286 612 341 558 341 473C341 398 299 324 186 204Z" stroke="rgb(0,0,0)" stroke-opacity="1" stroke-width="8" fill="rgb(0,0,0)" fill-opacity="1"></path></g></g></g></g></g></g></g><g><g><g><g transform="matrix(1,0,0,1,603,183.72000122070312)"><path transform="matrix(0.015,0,0,-0.015,0,0)" d="M355 664L358 692L244 689C228 689 210 689 167 690L103 692L100 664L147 662C171 661 182 653 182 635C182 630 182 627 181 622L86 -21C71 -124 41 -174 -6 -174C-18 -174 -27 -173 -35 -170L-32 -196C-21 -203 -9 -206 3 -206C38 -206 143 -178 177 54L262 613C268 651 275 658 313 661Z" stroke="rgb(0,0,0)" stroke-opacity="1" stroke-width="8" fill="rgb(0,0,0)" fill-opacity="1"></path></g></g><g><g><g><g><g transform="matrix(1,0,0,1,608.4299926757812,189.14999389648438)"><path transform="matrix(0.012,0,0,-0.012,0,0)" d="M418 -3L418 27L366 30C311 33 301 44 301 96L301 700L60 598L67 548L217 614L217 96C217 44 206 33 152 30L96 27L96 -3C250 0 250 0 261 0C292 0 402 -3 418 -3Z" stroke="rgb(0,0,0)" stroke-opacity="1" stroke-width="8" fill="rgb(0,0,0)" fill-opacity="1"></path></g></g></g></g></g></g></g><g><g><g><g transform="matrix(1,0,0,1,658,183.72000122070312)"><path transform="matrix(0.015,0,0,-0.015,0,0)" d="M355 664L358 692L244 689C228 689 210 689 167 690L103 692L100 664L147 662C171 661 182 653 182 635C182 630 182 627 181 622L86 -21C71 -124 41 -174 -6 -174C-18 -174 -27 -173 -35 -170L-32 -196C-21 -203 -9 -206 3 -206C38 -206 143 -178 177 54L262 613C268 651 275 658 313 661Z" stroke="rgb(0,0,0)" stroke-opacity="1" stroke-width="8" fill="rgb(0,0,0)" fill-opacity="1"></path></g></g><g><g><g><g><g transform="matrix(1,0,0,1,663.4299926757812,189.14999389648438)"><path transform="matrix(0.012,0,0,-0.012,0,0)" d="M16 23L16 -3C203 -3 203 0 239 0C275 0 275 -3 468 -3L468 82C353 77 307 81 122 77L304 270C401 373 431 428 431 503C431 618 353 689 226 689C154 689 105 669 56 619L39 483L68 483L81 529C97 587 133 612 200 612C286 612 341 558 341 473C341 398 299 324 186 204Z" stroke="rgb(0,0,0)" stroke-opacity="1" stroke-width="8" fill="rgb(0,0,0)" fill-opacity="1"></path></g></g></g></g></g></g></g></svg>
</svg>
